<svg width="634" height="804" viewBox="0 0 634 804" fill="none" xmlns="http://www.w3.org/2000/svg">
<g clip-path="url(#clip0_98_904)">
<path d="M634 774C634 790.569 620.569 804 604 804H0V0H604C620.569 0 634 13.4315 634 30V774Z" fill="white"/>
<g filter="url(#filter0_f_98_904)">
<ellipse cx="148.301" cy="270.981" rx="148.301" ry="270.981" transform="matrix(-0.918387 -0.395683 0.55837 -0.829592 193.372 1110.7)" fill="#3038F8"/>
</g>
<g filter="url(#filter1_f_98_904)">
<ellipse cx="-51.9028" cy="788.831" rx="179.263" ry="179.263" transform="rotate(-114.363 -51.9028 788.831)" fill="#A800EE"/>
</g>
<g filter="url(#filter2_f_98_904)">
<ellipse cx="326.682" cy="157.9" rx="326.682" ry="157.9" transform="matrix(-0.492566 -0.870275 0.940195 -0.340636 532.086 1154.8)" fill="#0044FF"/>
</g>
<path fill-rule="evenodd" clip-rule="evenodd" d="M133.143 730.822L220.023 710.299C257.8 701.376 233.106 691.519 209.736 696.209L115.062 715.216C63.2633 725.458 96.2587 739.534 133.143 730.822Z" fill="url(#paint0_linear_98_904)"/>
<path fill-rule="evenodd" clip-rule="evenodd" d="M119.475 586.576C118.932 560.319 118.083 532.878 105.389 509.886C103.274 506.053 100.782 502.321 97.3134 499.651C93.8447 496.983 89.2457 495.497 85.0064 496.591C78.0588 498.385 74.4472 506.18 73.6167 513.307C72.6446 521.642 74.2138 530.255 78.0575 537.713C82.7675 546.849 90.5673 553.92 97.3121 561.676C97.418 561.798 97.5226 561.919 97.6285 562.04L97.9436 562.407L98.2561 562.776L98.5687 563.149C98.672 563.272 98.7753 563.397 98.8787 563.522C98.982 563.646 99.0841 563.771 99.1874 563.899C99.2895 564.024 99.3915 564.149 99.4936 564.278C99.5956 564.404 99.6964 564.53 99.7985 564.658C99.8993 564.785 100 564.913 100.101 565.041C100.202 565.168 100.301 565.296 100.402 565.426C100.501 565.555 100.6 565.683 100.699 565.812C100.799 565.941 100.897 566.073 100.995 566.201C101.092 566.332 101.19 566.462 101.289 566.592C101.385 566.723 101.482 566.855 101.579 566.986C101.675 567.117 101.772 567.25 101.868 567.38C101.962 567.513 102.058 567.646 102.152 567.778C102.247 567.911 102.341 568.044 102.434 568.177C102.527 568.311 102.62 568.447 102.712 568.579C102.804 568.713 102.897 568.849 102.988 568.984C103.08 569.118 103.17 569.253 103.26 569.389C103.349 569.525 103.439 569.661 103.527 569.798C103.617 569.934 103.706 570.069 103.792 570.208C103.88 570.345 103.968 570.481 104.053 570.619C104.141 570.757 104.225 570.895 104.309 571.033C104.395 571.17 104.479 571.309 104.563 571.448C104.646 571.588 104.73 571.727 104.812 571.866C104.894 572.005 104.975 572.145 105.057 572.285C105.137 572.426 105.216 572.566 105.297 572.708C105.376 572.848 105.454 572.99 105.532 573.13C105.609 573.273 105.686 573.414 105.762 573.556C105.838 573.699 105.913 573.84 105.988 573.983C106.064 574.126 106.136 574.269 106.209 574.413C106.282 574.556 106.354 574.699 106.426 574.844C106.497 574.987 106.567 575.133 106.636 575.277C106.707 575.422 106.774 575.565 106.842 575.711C106.908 575.856 106.977 576 107.042 576.147C107.108 576.294 107.173 576.439 107.237 576.586C107.301 576.733 107.364 576.879 107.425 577.026C107.487 577.174 107.549 577.319 107.608 577.467C107.668 577.615 107.727 577.763 107.786 577.911C107.844 578.059 107.901 578.207 107.957 578.355C108.013 578.505 108.068 578.652 108.121 578.802C108.282 579.25 108.435 579.7 108.577 580.153C108.624 580.305 108.671 580.455 108.716 580.607C108.76 580.759 108.805 580.909 108.847 581.061C108.889 581.214 108.931 581.367 108.972 581.519C109.622 583.961 109.969 586.47 109.932 589.039L112.979 590.475C111.008 591.212 111.455 594.594 113.431 595.321C115.407 596.05 117.652 594.641 118.596 592.761C119.54 590.882 119.517 588.681 119.475 586.576Z" fill="url(#paint1_linear_98_904)"/>
<path fill-rule="evenodd" clip-rule="evenodd" d="M83.1699 497.237C90.9289 510.096 106.726 541.668 114.499 595.518C114.592 595.518 114.688 595.515 114.782 595.507C107.012 541.641 91.2147 510.031 83.4302 497.122C83.3434 497.159 83.2567 497.197 83.1699 497.237Z" fill="#30B4A0"/>
<path fill-rule="evenodd" clip-rule="evenodd" d="M92.395 514.178C92.395 514.178 94.0165 510.409 95.6953 505.584C96.3281 503.765 96.9685 501.797 97.5336 499.824C97.4609 499.765 97.3869 499.709 97.3129 499.652L97.2938 499.638C96.7236 501.642 96.0729 503.645 95.4287 505.492C94.5918 507.901 93.769 510.045 93.1541 511.587C92.8466 512.359 92.5915 512.979 92.4142 513.407C92.2368 513.834 92.1348 514.067 92.1348 514.067L92.395 514.178Z" fill="#30B4A0"/>
<path fill-rule="evenodd" clip-rule="evenodd" d="M94.7766 520.784C94.7766 520.784 94.5036 520.775 94.0035 520.748C91.2721 520.608 81.7769 519.936 73.3469 517.27L73.3418 517.562C83.3524 520.714 94.7613 521.064 94.7676 521.066L94.7766 520.784Z" fill="#30B4A0"/>
<path fill-rule="evenodd" clip-rule="evenodd" d="M89.726 509.381C89.726 509.381 89.5563 509.342 89.2438 509.264C87.5598 508.85 81.7221 507.329 75.9507 504.933C75.9099 505.019 75.8716 505.104 75.832 505.19C82.7095 508.045 89.6584 509.655 89.6635 509.656L89.726 509.381Z" fill="#30B4A0"/>
<path fill-rule="evenodd" clip-rule="evenodd" d="M97.7375 526.545C97.74 526.541 103.298 521.137 107.85 514.713C107.804 514.615 107.758 514.516 107.712 514.419C105.998 516.85 104.133 519.142 102.472 521.056C101.098 522.638 99.8641 523.961 98.9749 524.887C98.531 525.351 98.1712 525.715 97.9237 525.963C97.6775 526.212 97.541 526.345 97.541 526.345L97.7375 526.545Z" fill="#30B4A0"/>
<path fill-rule="evenodd" clip-rule="evenodd" d="M100.474 534.862C100.474 534.862 100.168 534.869 99.6064 534.873C96.4119 534.89 85.0044 534.714 75.5576 531.782C75.5946 531.892 75.6316 532 75.6686 532.11C86.8095 535.516 100.473 535.14 100.482 535.144L100.474 534.862Z" fill="#30B4A0"/>
<path fill-rule="evenodd" clip-rule="evenodd" d="M102.624 541.518C102.627 541.513 108.505 537.455 114.031 532.033L113.95 531.718C112.653 532.995 111.336 534.2 110.075 535.293C108.014 537.084 106.11 538.583 104.721 539.634C104.027 540.157 103.462 540.572 103.07 540.854C102.68 541.134 102.463 541.286 102.463 541.286L102.624 541.518Z" fill="#30B4A0"/>
<path fill-rule="evenodd" clip-rule="evenodd" d="M103.781 546.604C103.781 546.604 103.444 546.649 102.841 546.727C100.732 546.995 95.3713 547.62 89.8589 547.805C88.1928 547.863 86.5127 547.878 84.9053 547.832L85.1438 548.12C93.5815 548.323 103.817 546.882 103.82 546.882L103.781 546.604Z" fill="#30B4A0"/>
<path fill-rule="evenodd" clip-rule="evenodd" d="M106.123 552.509C106.127 552.508 110.749 551.115 115.966 548.848C116.364 548.675 116.766 548.496 117.169 548.313L117.129 548.022C116.701 548.216 116.276 548.406 115.853 548.589C113.252 549.719 110.799 550.631 108.995 551.261C108.093 551.578 107.354 551.821 106.841 551.987C106.328 552.154 106.04 552.24 106.04 552.24L106.123 552.509Z" fill="#30B4A0"/>
<path fill-rule="evenodd" clip-rule="evenodd" d="M107.315 559.516C107.315 559.516 106.991 559.584 106.398 559.69C104.762 559.983 101.086 560.565 96.5723 560.833L96.8096 561.102C102.871 560.727 107.369 559.794 107.373 559.793L107.315 559.516Z" fill="#30B4A0"/>
<path fill-rule="evenodd" clip-rule="evenodd" d="M105.767 573.937C100.557 574.849 96.2884 575.693 96.2884 575.693L94.5279 562.393C80.7514 551.356 63.2828 546.464 44.1992 544.273C46.4075 567.169 52.2771 589.288 61.9318 610.6L73.6328 610.431L66.8281 620.708C78.4755 643.288 94.5011 664.936 115.061 685.619V590.013C112.416 583.898 109.297 578.576 105.767 573.937Z" fill="url(#paint2_linear_98_904)"/>
<path d="M77.1455 580.331L115.061 626.485V629.312L75.7588 581.472L77.1455 580.331Z" fill="#E26114"/>
<path d="M70.1943 596.758L93.5095 600.601L93.2211 602.375L69.9072 598.53L70.1943 596.758Z" fill="#E26114"/>
<path d="M109.847 590.51L109.548 620.101L107.754 620.087L108.055 590.496L109.847 590.51Z" fill="#E26114"/>
<path d="M85.7944 620.411L115.061 628.329V630.193L85.3301 622.148L85.7944 620.411Z" fill="#E26114"/>
<path fill-rule="evenodd" clip-rule="evenodd" d="M258.968 480.031C245.708 481.556 233.574 484.952 224.001 492.621L222.778 501.863C222.778 501.863 219.812 501.276 216.193 500.642C213.74 503.866 211.572 507.564 209.735 511.812V578.239C224.021 563.868 235.154 548.827 243.247 533.138L238.518 525.997L246.649 526.116C253.356 511.308 257.435 495.941 258.968 480.031Z" fill="url(#paint3_linear_98_904)"/>
<path d="M236.079 505.084L209.735 537.151V539.115L237.042 505.876L236.079 505.084Z" fill="#E26114"/>
<path d="M240.908 516.496L224.71 519.166L224.912 520.399L241.108 517.727L240.908 516.496Z" fill="#E26114"/>
<path d="M213.358 512.156L213.568 532.716L214.813 532.706L214.604 512.146L213.358 512.156Z" fill="#E26114"/>
<path d="M230.069 532.932L209.735 538.433V539.728L230.392 534.139L230.069 532.932Z" fill="#E26114"/>
<path fill-rule="evenodd" clip-rule="evenodd" d="M288.811 503.422C266.779 505.955 246.611 511.6 230.706 524.344L228.673 539.698C228.673 539.698 223.745 538.724 217.731 537.671C213.655 543.028 210.053 549.172 207 556.233V666.615C230.739 642.735 249.239 617.741 262.688 591.671L254.831 579.805L268.34 580.002C279.484 555.395 286.262 529.859 288.811 503.422Z" fill="url(#paint4_linear_98_904)"/>
<path d="M253.511 545.054L209.735 598.34V601.603L255.112 546.369L253.511 545.054Z" fill="#4ABCAC"/>
<path d="M261.535 564.019L234.62 568.457L234.953 570.503L261.868 566.064L261.535 564.019Z" fill="#4ABCAC"/>
<path d="M215.755 556.806L216.102 590.971L218.172 590.953L217.825 556.789L215.755 556.806Z" fill="#4ABCAC"/>
<path d="M243.524 591.328L209.735 600.47V602.621L244.061 593.334L243.524 591.328Z" fill="#4ABCAC"/>
<mask id="mask0_98_904" style="mask-type:luminance" maskUnits="userSpaceOnUse" x="126" y="597" width="37" height="75">
<path d="M162.936 597.791C161.789 609.7 158.735 621.203 153.713 632.288L147.628 632.198L151.168 637.544C145.11 649.288 136.775 660.548 126.081 671.305V621.579C127.458 618.399 129.08 615.631 130.916 613.217C133.626 613.691 135.847 614.13 135.847 614.13L136.761 607.213C143.926 601.475 153.01 598.933 162.936 597.791Z" fill="white"/>
</mask>
<g mask="url(#mask0_98_904)">
<path d="M110.929 601.059L127.719 678.902L178.087 668.038L161.297 590.195L110.929 601.059Z" fill="url(#paint5_linear_98_904)"/>
</g>
<path d="M145.801 616.545L126.079 640.55V642.019L146.521 617.137L145.801 616.545Z" fill="#3DBEAC"/>
<path d="M149.417 625.089L137.291 627.086L137.44 628.009L149.567 626.01L149.417 625.089Z" fill="#3DBEAC"/>
<path d="M128.792 621.838L128.949 637.23L129.881 637.222L129.725 621.831L128.792 621.838Z" fill="#3DBEAC"/>
<path d="M141.301 637.389L126.079 641.509V642.478L141.543 638.294L141.301 637.389Z" fill="#3DBEAC"/>
<path fill-rule="evenodd" clip-rule="evenodd" d="M570.773 493.248C569.855 485.356 565.855 476.726 558.163 474.741C553.471 473.528 548.377 475.173 544.537 478.128C540.697 481.084 537.937 485.217 535.595 489.459C521.54 514.915 520.603 545.296 519.999 574.369C519.953 576.698 519.927 579.135 520.973 581.218C522.019 583.3 524.506 584.859 526.692 584.053C528.878 583.246 529.373 579.504 527.192 578.687L530.566 577.099C530.523 574.254 530.909 571.474 531.628 568.772C531.672 568.602 531.718 568.434 531.765 568.266C531.813 568.097 531.862 567.93 531.912 567.762C531.962 567.593 532.013 567.426 532.065 567.26C532.222 566.759 532.392 566.26 532.569 565.764C532.629 565.599 532.69 565.434 532.751 565.27C532.813 565.106 532.877 564.941 532.94 564.777C533.005 564.613 533.07 564.449 533.137 564.285C533.203 564.122 533.271 563.96 533.338 563.797H533.34C533.407 563.633 533.479 563.471 533.548 563.309C533.618 563.147 533.69 562.985 533.763 562.825C533.836 562.663 533.91 562.502 533.984 562.341C534.058 562.18 534.134 562.02 534.212 561.86C534.289 561.699 534.367 561.54 534.444 561.382C534.523 561.222 534.604 561.063 534.684 560.905C534.765 560.746 534.847 560.588 534.929 560.429C535.011 560.271 535.095 560.114 535.179 559.957C535.263 559.799 535.349 559.642 535.433 559.485C535.52 559.328 535.607 559.172 535.695 559.017C535.783 558.861 535.872 558.705 535.961 558.55C536.05 558.394 536.141 558.24 536.232 558.085C536.322 557.93 536.414 557.777 536.506 557.622C536.599 557.469 536.692 557.315 536.787 557.162C536.881 557.009 536.975 556.857 537.071 556.704C537.167 556.552 537.264 556.4 537.361 556.248C537.458 556.095 537.556 555.945 537.654 555.794C537.752 555.644 537.852 555.492 537.951 555.341C538.051 555.192 538.152 555.043 538.252 554.892C538.353 554.743 538.454 554.594 538.557 554.446C538.658 554.296 538.761 554.148 538.865 554C538.969 553.852 539.073 553.704 539.177 553.558C539.282 553.41 539.387 553.264 539.492 553.118C539.598 552.971 539.704 552.824 539.811 552.679C539.917 552.533 540.026 552.388 540.133 552.244C540.24 552.098 540.348 551.954 540.458 551.81C540.567 551.667 540.676 551.523 540.785 551.38C540.896 551.236 541.005 551.094 541.115 550.951C541.226 550.809 541.337 550.667 541.449 550.525C541.559 550.385 541.671 550.242 541.784 550.102C541.897 549.961 542.009 549.82 542.122 549.68C542.234 549.54 542.347 549.401 542.461 549.261C542.575 549.122 542.688 548.983 542.802 548.844C542.916 548.706 543.031 548.567 543.145 548.431L543.491 548.019L543.838 547.61L544.185 547.203C544.301 547.069 544.418 546.934 544.534 546.8C552.002 538.215 560.638 530.384 565.851 520.27C570.114 512.014 571.849 502.476 570.773 493.248Z" fill="url(#paint6_linear_98_904)"/>
<path fill-rule="evenodd" clip-rule="evenodd" d="M560.196 475.454C551.607 489.691 534.114 524.649 525.509 584.27C525.405 584.27 525.3 584.267 525.195 584.259C533.798 524.619 551.29 489.622 559.908 475.328C560.005 475.368 560.102 475.411 560.196 475.454Z" fill="#30B4A0"/>
<path fill-rule="evenodd" clip-rule="evenodd" d="M549.98 494.212C549.979 494.21 548.184 490.039 546.325 484.697C545.626 482.683 544.918 480.506 544.292 478.32C544.372 478.257 544.453 478.193 544.536 478.13L544.559 478.113C545.19 480.332 545.911 482.55 546.621 484.595C547.549 487.261 548.461 489.635 549.141 491.343C549.48 492.197 549.762 492.884 549.96 493.357C550.157 493.831 550.269 494.09 550.269 494.09L549.98 494.212Z" fill="#30B4A0"/>
<path fill-rule="evenodd" clip-rule="evenodd" d="M547.346 501.525C547.346 501.525 547.648 501.516 548.202 501.486C551.226 501.331 561.738 500.587 571.073 497.634L571.078 497.958C559.995 501.448 547.364 501.835 547.356 501.836L547.346 501.525Z" fill="#30B4A0"/>
<path fill-rule="evenodd" clip-rule="evenodd" d="M552.938 488.9C552.938 488.9 553.125 488.857 553.472 488.77C555.337 488.308 561.8 486.627 568.188 483.976C568.233 484.07 568.278 484.163 568.321 484.259C560.708 487.422 553.014 489.203 553.009 489.205L552.938 488.9Z" fill="#30B4A0"/>
<path fill-rule="evenodd" clip-rule="evenodd" d="M544.066 507.903C544.063 507.9 537.909 501.916 532.868 494.803C532.919 494.694 532.969 494.586 533.021 494.476C534.918 497.168 536.985 499.706 538.825 501.825C540.346 503.577 541.711 505.042 542.696 506.068C543.19 506.58 543.587 506.984 543.861 507.258C544.135 507.533 544.286 507.681 544.286 507.681L544.066 507.903Z" fill="#30B4A0"/>
<path fill-rule="evenodd" clip-rule="evenodd" d="M541.039 517.111C541.039 517.111 541.378 517.122 541.999 517.124C545.534 517.142 558.166 516.948 568.625 513.703C568.584 513.823 568.543 513.944 568.502 514.065C556.166 517.837 541.039 517.423 541.028 517.424L541.039 517.111Z" fill="#30B4A0"/>
<path fill-rule="evenodd" clip-rule="evenodd" d="M538.658 524.481C538.653 524.475 532.148 519.982 526.027 513.98L526.119 513.631C527.553 515.046 529.013 516.378 530.408 517.59C532.69 519.572 534.799 521.232 536.335 522.396C537.103 522.977 537.73 523.435 538.162 523.748C538.596 524.059 538.836 524.226 538.836 524.226L538.658 524.481Z" fill="#30B4A0"/>
<path fill-rule="evenodd" clip-rule="evenodd" d="M537.375 530.111C537.375 530.111 537.748 530.163 538.415 530.249C540.75 530.545 546.687 531.236 552.79 531.443C554.635 531.505 556.493 531.524 558.274 531.475L558.012 531.794C548.668 532.019 537.336 530.423 537.332 530.423L537.375 530.111Z" fill="#30B4A0"/>
<path fill-rule="evenodd" clip-rule="evenodd" d="M534.783 536.65C534.779 536.649 529.662 535.107 523.885 532.596C523.443 532.405 522.999 532.207 522.553 532.004L522.597 531.681C523.071 531.896 523.543 532.105 524.01 532.309C526.889 533.559 529.606 534.57 531.603 535.269C532.6 535.617 533.419 535.889 533.987 536.072C534.555 536.255 534.872 536.351 534.872 536.351L534.783 536.65Z" fill="#30B4A0"/>
<path fill-rule="evenodd" clip-rule="evenodd" d="M533.462 544.409C533.462 544.409 533.821 544.482 534.478 544.6C536.288 544.925 540.361 545.57 545.357 545.865L545.094 546.164C538.385 545.748 533.404 544.714 533.398 544.714L533.462 544.409Z" fill="#30B4A0"/>
<path fill-rule="evenodd" clip-rule="evenodd" d="M424.976 569.594C424.576 550.243 423.951 530.02 414.596 513.078C413.037 510.253 411.202 507.503 408.646 505.534C406.089 503.568 402.7 502.474 399.577 503.28C394.456 504.602 391.795 510.345 391.182 515.598C390.467 521.742 391.622 528.089 394.456 533.585C397.927 540.317 403.674 545.528 408.644 551.243C408.722 551.333 408.799 551.422 408.877 551.513L409.109 551.783L409.34 552.055L409.569 552.329C409.646 552.421 409.722 552.512 409.798 552.605C409.874 552.697 409.949 552.788 410.025 552.882C410.101 552.975 410.177 553.066 410.252 553.16C410.327 553.254 410.402 553.346 410.476 553.44C410.55 553.533 410.624 553.628 410.7 553.722C410.774 553.817 410.848 553.911 410.922 554.007C410.994 554.101 411.068 554.197 411.141 554.291C411.214 554.387 411.285 554.483 411.359 554.578C411.431 554.674 411.503 554.77 411.575 554.867C411.646 554.964 411.718 555.06 411.789 555.156C411.861 555.253 411.931 555.35 412.001 555.448C412.071 555.545 412.141 555.643 412.21 555.74C412.28 555.839 412.35 555.936 412.418 556.035C412.487 556.135 412.554 556.233 412.623 556.331C412.691 556.431 412.759 556.529 412.825 556.628C412.893 556.728 412.96 556.827 413.025 556.928C413.092 557.028 413.158 557.128 413.223 557.229C413.288 557.33 413.353 557.429 413.418 557.532C413.482 557.632 413.547 557.733 413.611 557.834C413.675 557.935 413.737 558.037 413.8 558.139C413.862 558.241 413.923 558.343 413.987 558.446C414.048 558.548 414.108 558.65 414.17 558.754C414.23 558.857 414.289 558.959 414.349 559.062C414.409 559.166 414.468 559.269 414.527 559.374C414.584 559.477 414.643 559.582 414.7 559.685C414.756 559.79 414.814 559.893 414.87 559.999C414.926 560.103 414.982 560.208 415.037 560.314C415.092 560.419 415.146 560.524 415.199 560.63C415.253 560.736 415.305 560.841 415.359 560.948C415.41 561.054 415.462 561.161 415.513 561.267C415.564 561.373 415.615 561.481 415.665 561.587C415.714 561.693 415.764 561.8 415.811 561.909C415.861 562.017 415.908 562.123 415.956 562.233C416.003 562.34 416.049 562.448 416.095 562.555C416.141 562.664 416.185 562.772 416.229 562.881C416.273 562.99 416.318 563.099 416.36 563.209C416.402 563.318 416.444 563.427 416.486 563.536C416.527 563.646 416.568 563.756 416.607 563.866H416.609C416.727 564.196 416.84 564.526 416.944 564.861V564.862C416.979 564.973 417.013 565.084 417.046 565.196C417.08 565.307 417.113 565.418 417.143 565.53C417.175 565.643 417.205 565.755 417.235 565.867C417.714 567.667 417.97 569.516 417.942 571.41L420.187 572.468C418.735 573.011 419.065 575.503 420.52 576.038C421.976 576.576 423.63 575.538 424.327 574.152C425.023 572.765 425.007 571.144 424.976 569.594Z" fill="url(#paint7_linear_98_904)"/>
<path fill-rule="evenodd" clip-rule="evenodd" d="M398.222 503.755C403.939 513.232 415.58 536.499 421.31 576.182C421.38 576.182 421.449 576.18 421.519 576.175C415.792 536.477 404.15 513.184 398.413 503.671C398.348 503.699 398.285 503.727 398.222 503.755Z" fill="#30B4A0"/>
<path fill-rule="evenodd" clip-rule="evenodd" d="M405.02 516.24C405.02 516.24 406.216 513.463 407.453 509.906C407.919 508.567 408.391 507.116 408.807 505.662C408.753 505.618 408.7 505.575 408.645 505.534L408.629 505.524C408.209 507 407.73 508.476 407.256 509.837C406.639 511.612 406.032 513.192 405.579 514.329C405.353 514.897 405.166 515.353 405.035 515.67C404.904 515.985 404.829 516.157 404.829 516.157L405.02 516.24Z" fill="#30B4A0"/>
<path fill-rule="evenodd" clip-rule="evenodd" d="M406.775 521.108C406.772 521.107 406.572 521.102 406.205 521.083C404.192 520.979 397.194 520.483 390.981 518.519L390.978 518.734C398.355 521.057 406.763 521.314 406.767 521.315L406.775 521.108Z" fill="#30B4A0"/>
<path fill-rule="evenodd" clip-rule="evenodd" d="M403.053 512.704C403.053 512.704 402.928 512.675 402.698 512.617C401.456 512.311 397.154 511.191 392.902 509.425C392.872 509.488 392.844 509.552 392.814 509.614C397.882 511.719 403.004 512.904 403.006 512.905L403.053 512.704Z" fill="#30B4A0"/>
<path fill-rule="evenodd" clip-rule="evenodd" d="M408.955 525.354C408.958 525.35 413.053 521.367 416.408 516.634C416.374 516.562 416.341 516.489 416.306 516.417C415.043 518.209 413.668 519.899 412.443 521.309C411.431 522.475 410.522 523.449 409.866 524.132C409.54 524.474 409.273 524.742 409.091 524.925C408.908 525.109 408.809 525.207 408.809 525.207L408.955 525.354Z" fill="#30B4A0"/>
<path fill-rule="evenodd" clip-rule="evenodd" d="M410.974 531.482C410.974 531.482 410.747 531.489 410.334 531.49C407.98 531.503 399.573 531.374 392.611 529.213C392.639 529.293 392.665 529.374 392.693 529.454C400.904 531.963 410.973 531.687 410.978 531.689L410.974 531.482Z" fill="#30B4A0"/>
<path fill-rule="evenodd" clip-rule="evenodd" d="M412.558 536.388C412.561 536.384 416.892 533.392 420.964 529.398L420.904 529.166C419.948 530.109 418.978 530.994 418.049 531.801C416.529 533.12 415.127 534.227 414.104 535.001C413.591 535.387 413.176 535.692 412.887 535.9C412.599 536.107 412.439 536.219 412.439 536.219L412.558 536.388Z" fill="#30B4A0"/>
<path fill-rule="evenodd" clip-rule="evenodd" d="M413.41 540.135C413.41 540.135 413.161 540.17 412.717 540.227C411.163 540.424 407.212 540.884 403.149 541.021C401.922 541.064 400.683 541.075 399.499 541.042L399.675 541.254C405.893 541.404 413.436 540.341 413.439 540.341L413.41 540.135Z" fill="#30B4A0"/>
<path fill-rule="evenodd" clip-rule="evenodd" d="M415.135 544.487C415.138 544.487 418.544 543.46 422.389 541.789C422.683 541.661 422.979 541.53 423.275 541.395L423.245 541.18C422.93 541.325 422.616 541.462 422.306 541.598C420.389 542.432 418.58 543.104 417.252 543.566C416.587 543.799 416.043 543.979 415.665 544.101C415.286 544.223 415.074 544.287 415.074 544.287L415.135 544.487Z" fill="#30B4A0"/>
<path fill-rule="evenodd" clip-rule="evenodd" d="M416.015 549.651C416.015 549.651 415.775 549.701 415.339 549.779C414.134 549.995 411.423 550.424 408.098 550.621L408.272 550.82C412.739 550.543 416.053 549.855 416.057 549.855L416.015 549.651Z" fill="#30B4A0"/>
<path fill-rule="evenodd" clip-rule="evenodd" d="M414.874 560.278C411.034 560.952 407.89 561.573 407.89 561.573L406.592 551.773C396.44 543.639 383.567 540.035 369.503 538.417C371.129 555.293 375.457 571.593 382.571 587.298L391.194 587.172L386.179 594.747C394.762 611.388 406.572 627.339 421.725 642.583V572.127C419.774 567.62 417.475 563.697 414.874 560.278Z" fill="url(#paint8_linear_98_904)"/>
<path d="M393.781 564.991L421.725 599.003V601.086L392.761 565.831L393.781 564.991Z" fill="#E26114"/>
<path d="M388.659 577.096L405.84 579.928L405.626 581.234L388.446 578.402L388.659 577.096Z" fill="#E26114"/>
<path d="M417.88 572.492L417.66 594.299L416.338 594.288L416.56 572.482L417.88 572.492Z" fill="#E26114"/>
<path d="M400.155 594.528L421.723 600.363V601.735L399.812 595.808L400.155 594.528Z" fill="#E26114"/>
<path fill-rule="evenodd" clip-rule="evenodd" d="M499.374 730.822L412.494 710.299C374.718 701.375 399.413 691.519 422.782 696.21L517.456 715.216C569.252 725.456 536.258 739.534 499.374 730.822Z" fill="url(#paint9_linear_98_904)"/>
<path fill-rule="evenodd" clip-rule="evenodd" d="M591.596 528.419C572.287 530.639 554.614 535.588 540.672 546.754L538.891 560.211C538.891 560.211 534.572 559.356 529.301 558.433C525.729 563.128 522.572 568.513 519.896 574.7V671.437C540.7 650.509 556.914 628.605 568.701 605.758L561.814 595.358L573.653 595.532C583.423 573.969 589.362 551.588 591.596 528.419Z" fill="url(#paint10_linear_98_904)"/>
<path d="M558.262 564.905L519.897 611.603V614.463L559.664 566.057L558.262 564.905Z" fill="#4A0D78"/>
<path d="M565.295 581.525L541.707 585.414L541.998 587.209L565.586 583.318L565.295 581.525Z" fill="#4A0D78"/>
<path d="M525.173 575.204L525.478 605.146L527.292 605.132L526.988 575.19L525.173 575.204Z" fill="#4A0D78"/>
<path d="M549.51 605.459L519.897 613.471V615.356L549.98 607.217L549.51 605.459Z" fill="#4A0D78"/>
<path fill-rule="evenodd" clip-rule="evenodd" d="M501.274 601.349C498.355 601.861 495.965 602.333 495.965 602.333L494.978 594.883C487.262 588.699 477.477 585.96 466.786 584.732C468.022 597.559 471.311 609.949 476.72 621.888L483.274 621.793L479.462 627.55C485.987 640.199 494.964 652.326 506.482 663.914V610.356C504.999 606.929 503.252 603.948 501.274 601.349Z" fill="url(#paint11_linear_98_904)"/>
<path d="M485.24 604.931L506.481 630.785V632.368L484.465 605.569L485.24 604.931Z" fill="#E26114"/>
<path d="M481.346 614.133L494.407 616.285L494.246 617.279L481.186 615.126L481.346 614.133Z" fill="#E26114"/>
<path d="M503.561 610.634L503.393 627.209L502.388 627.202L502.557 610.625L503.561 610.634Z" fill="#E26114"/>
<path d="M490.087 627.384L506.482 631.82V632.863L489.827 628.356L490.087 627.384Z" fill="#E26114"/>
<path fill-rule="evenodd" clip-rule="evenodd" d="M499.027 425.865H492.831C491.853 425.865 491.053 426.665 491.053 427.644V443.477C491.053 444.455 491.853 445.255 492.831 445.255H499.027C500.006 445.255 500.806 444.455 500.806 443.477V427.644C500.806 426.665 500.006 425.865 499.027 425.865Z" fill="white"/>
<g clip-path="url(#clip1_98_904)">
<path d="M97.6544 729.994L184.065 680.246C193.823 674.635 201.72 659.587 201.72 646.625V417.153C201.72 410.568 207.151 409.107 203.859 406.719C203.743 406.626 196.149 403.24 196.009 403.136C192.462 401.78 188.671 401.177 184.065 403.82L97.6311 453.568C87.8852 459.18 79.9768 474.24 79.9768 487.19V716.697C79.9768 723.583 82.2098 728.487 85.7918 730.736C86.0011 730.864 95.0958 735.2 95.3749 735.281C98.5266 736.325 93.3513 732.452 97.6544 729.994Z" fill="url(#paint12_linear_98_904)"/>
<path style="mix-blend-mode:color-dodge" d="M98.4567 453.858L184.891 404.156C189.543 401.513 103.225 455.493 103.225 455.493C93.4791 461.104 85.5707 476.164 85.5707 489.114C85.5707 489.114 80.8024 723.873 80.8024 716.986V487.491C80.8024 474.529 88.6992 459.469 98.4567 453.858Z" fill="url(#paint13_radial_98_904)"/>
<path style="mix-blend-mode:screen" opacity="0.6" d="M104.365 733.055L190.81 683.307C200.556 677.696 208.465 662.647 208.465 649.686V420.213C208.465 407.252 200.556 401.293 190.81 406.904L104.365 456.652C94.6188 462.263 86.7105 477.324 86.7105 490.274V719.757C86.7105 732.707 94.6188 738.666 104.365 733.055Z" fill="url(#paint14_radial_98_904)"/>
<path d="M105.912 733.89L192.346 684.142C202.092 678.53 210 663.47 210 650.52V421.037C210 408.086 202.092 402.127 192.346 407.739L105.912 457.487C96.1541 463.098 88.2573 478.147 88.2573 491.108V720.58C88.2573 733.542 96.1541 739.501 105.912 733.89Z" fill="url(#paint15_linear_98_904)"/>
<path d="M207.593 652.039V422.289C207.593 410.927 200.615 405.698 192.113 410.626L106.144 460.107C97.5963 465.023 90.6765 478.228 90.6765 489.59V719.34C90.6765 730.702 97.5963 735.919 106.144 731.003L192.125 681.51C200.661 676.606 207.593 663.401 207.593 652.039Z" fill="url(#paint16_linear_98_904)"/>
<path d="M204.15 653.419V424.851C204.15 415.332 198.335 410.938 191.194 415.089L107.051 463.515C99.8987 467.631 94.0954 478.68 94.0954 488.187V716.778C94.0954 726.284 99.9104 730.69 107.051 726.539L191.194 678.113C198.347 673.997 204.15 662.949 204.15 653.419Z" fill="url(#paint17_linear_98_904)"/>
<path d="M190.217 417.617C196.963 413.733 202.429 416.84 202.429 424.573V655.737C202.429 663.447 196.963 672.85 190.217 676.722L108.028 724.035C101.283 727.919 95.8166 724.812 95.8166 717.079V485.914C95.8166 478.193 101.283 468.802 108.028 464.918L190.217 417.617Z" fill="url(#paint18_linear_98_904)"/>
<path d="M85.9312 544.207V528.718C85.9159 527.709 85.6639 526.719 85.1953 525.825C84.7268 524.931 84.0547 524.159 83.233 523.57C81.7443 522.712 80.5348 523.628 80.5348 525.611V541.1C80.5501 542.107 80.8022 543.096 81.2708 543.988C81.7394 544.88 82.4115 545.65 83.233 546.236C84.7216 547.094 85.9312 546.189 85.9312 544.207Z" fill="url(#paint19_linear_98_904)"/>
<path d="M84.3029 545.981C85.0705 545.981 85.3496 545.019 85.3496 544.207V528.718C85.3313 527.813 85.1046 526.924 84.6873 526.12C84.2699 525.316 83.6728 524.618 82.9422 524.081C82.7083 523.933 82.4396 523.849 82.163 523.837C81.3954 523.837 81.1163 524.788 81.1163 525.611V541.1C81.1346 542.005 81.3612 542.894 81.7786 543.698C82.196 544.502 82.7931 545.2 83.5237 545.737C83.7576 545.885 84.0262 545.969 84.3029 545.981Z" fill="url(#paint20_linear_98_904)"/>
<path style="mix-blend-mode:color-dodge" d="M84.5471 544.601V529.112C84.531 528.208 84.3066 527.319 83.8912 526.515C83.4758 525.711 82.8805 525.013 82.1514 524.475C81.9362 524.353 81.6991 524.274 81.4536 524.243C81.5263 524.12 81.63 524.017 81.7544 523.946C81.8787 523.875 82.0196 523.838 82.163 523.837C82.4396 523.849 82.7083 523.933 82.9422 524.081C83.6728 524.618 84.2699 525.316 84.6873 526.12C85.1046 526.924 85.3313 527.813 85.3496 528.718V544.207C85.3496 545.019 85.0705 545.981 84.3029 545.981H84.2215C84.4546 545.559 84.5672 545.082 84.5471 544.601Z" fill="url(#paint21_radial_98_904)"/>
<g style="mix-blend-mode:multiply">
<path d="M108.028 464.918L190.217 417.617C196.963 413.733 202.429 416.84 202.429 424.573V655.737C202.429 663.447 196.963 672.85 190.217 676.722L108.028 724.035C101.283 727.919 95.8166 724.812 95.8166 717.079V485.914C95.8166 478.193 101.283 468.802 108.028 464.918ZM96.84 717.068C96.7274 719.095 97.3053 721.101 98.4798 722.76C98.9618 723.361 99.5772 723.843 100.277 724.167C100.978 724.49 101.744 724.648 102.515 724.627C104.268 724.549 105.97 724.022 107.458 723.096L189.659 675.783C196.09 672.084 201.289 663.03 201.289 655.714V424.549C201.289 419.912 199.114 417.002 195.625 417.002C193.869 417.075 192.161 417.603 190.671 418.532L108.482 465.834C102.039 469.544 96.7935 478.587 96.7935 485.914L96.84 717.068Z" fill="#BCBEC0"/>
</g>
</g>
<path fill-rule="evenodd" clip-rule="evenodd" d="M173.062 494.77V580.947L245.897 585.453L261.481 522.004L173.062 494.77Z" fill="url(#paint22_linear_98_904)"/>
<g clip-path="url(#clip2_98_904)">
<path d="M532.346 729.994L445.935 680.246C436.178 674.635 428.281 659.587 428.281 646.625V417.153C428.281 410.568 422.85 409.107 426.141 406.719C426.257 406.626 433.852 403.24 433.991 403.136C437.538 401.78 441.33 401.177 445.935 403.82L532.369 453.568C542.115 459.18 550.024 474.24 550.024 487.19V716.697C550.024 723.583 547.791 728.487 544.209 730.736C543.999 730.864 534.905 735.2 534.626 735.281C531.474 736.325 536.649 732.452 532.346 729.994Z" fill="url(#paint23_linear_98_904)"/>
<path style="mix-blend-mode:color-dodge" d="M531.543 453.858L445.109 404.156C440.457 401.513 526.775 455.493 526.775 455.493C536.521 461.104 544.429 476.164 544.429 489.114C544.429 489.114 549.198 723.873 549.198 716.986V487.491C549.198 474.529 541.301 459.469 531.543 453.858Z" fill="url(#paint24_radial_98_904)"/>
<path style="mix-blend-mode:screen" opacity="0.6" d="M525.635 733.055L439.19 683.307C429.444 677.696 421.535 662.647 421.535 649.686V420.213C421.535 407.252 429.444 401.293 439.19 406.904L525.635 456.652C535.381 462.263 543.29 477.324 543.29 490.274V719.757C543.29 732.707 535.381 738.666 525.635 733.055Z" fill="url(#paint25_radial_98_904)"/>
<path d="M524.088 733.89L437.654 684.142C427.908 678.53 420 663.47 420 650.52V421.037C420 408.086 427.908 402.127 437.654 407.739L524.088 457.487C533.846 463.098 541.743 478.147 541.743 491.108V720.58C541.743 733.542 533.846 739.501 524.088 733.89Z" fill="url(#paint26_linear_98_904)"/>
<path d="M422.407 652.039V422.289C422.407 410.927 429.385 405.698 437.887 410.626L523.856 460.107C532.404 465.023 539.323 478.228 539.323 489.59V719.34C539.323 730.702 532.404 735.919 523.856 731.003L437.875 681.51C429.339 676.606 422.407 663.401 422.407 652.039Z" fill="url(#paint27_linear_98_904)"/>
<path d="M425.85 653.419V424.851C425.85 415.332 431.665 410.938 438.805 415.089L522.948 463.515C530.101 467.631 535.904 478.68 535.904 488.187V716.778C535.904 726.284 530.089 730.69 522.948 726.539L438.805 678.113C431.653 673.997 425.85 662.949 425.85 653.419Z" fill="url(#paint28_linear_98_904)"/>
<path d="M439.783 417.617C433.037 413.733 427.571 416.84 427.571 424.573V655.737C427.571 663.447 433.037 672.85 439.783 676.722L521.972 724.035C528.717 727.919 534.183 724.812 534.183 717.079V485.914C534.183 478.193 528.717 468.802 521.972 464.918L439.783 417.617Z" fill="url(#paint29_linear_98_904)"/>
<path d="M544.068 544.207V528.718C544.084 527.709 544.336 526.719 544.804 525.825C545.273 524.931 545.945 524.159 546.767 523.57C548.255 522.712 549.465 523.628 549.465 525.611V541.1C549.449 542.107 549.197 543.096 548.729 543.988C548.26 544.88 547.588 545.65 546.767 546.236C545.278 547.094 544.068 546.189 544.068 544.207Z" fill="url(#paint30_linear_98_904)"/>
<path d="M545.697 545.981C544.93 545.981 544.65 545.019 544.65 544.207V528.718C544.669 527.813 544.895 526.924 545.313 526.12C545.73 525.316 546.327 524.618 547.058 524.081C547.292 523.933 547.56 523.849 547.837 523.837C548.605 523.837 548.884 524.788 548.884 525.611V541.1C548.865 542.005 548.639 542.894 548.221 543.698C547.804 544.502 547.207 545.2 546.476 545.737C546.242 545.885 545.974 545.969 545.697 545.981Z" fill="url(#paint31_linear_98_904)"/>
<path style="mix-blend-mode:color-dodge" d="M545.453 544.601V529.112C545.469 528.208 545.693 527.319 546.109 526.515C546.524 525.711 547.12 525.013 547.849 524.475C548.064 524.353 548.301 524.274 548.546 524.243C548.474 524.12 548.37 524.017 548.246 523.946C548.121 523.875 547.98 523.838 547.837 523.837C547.56 523.849 547.292 523.933 547.058 524.081C546.327 524.618 545.73 525.316 545.313 526.12C544.895 526.924 544.669 527.813 544.65 528.718V544.207C544.65 545.019 544.93 545.981 545.697 545.981H545.778C545.545 545.559 545.433 545.082 545.453 544.601Z" fill="url(#paint32_radial_98_904)"/>
<g style="mix-blend-mode:multiply">
<path d="M521.972 464.918L439.783 417.617C433.037 413.733 427.571 416.84 427.571 424.573V655.737C427.571 663.447 433.037 672.85 439.783 676.722L521.972 724.035C528.717 727.919 534.183 724.812 534.183 717.079V485.914C534.183 478.193 528.717 468.802 521.972 464.918ZM533.16 717.068C533.273 719.095 532.695 721.101 531.52 722.76C531.038 723.361 530.423 723.843 529.723 724.167C529.022 724.49 528.256 724.648 527.485 724.627C525.732 724.549 524.03 724.022 522.542 723.096L440.341 675.783C433.91 672.084 428.711 663.03 428.711 655.714V424.549C428.711 419.912 430.886 417.002 434.375 417.002C436.131 417.075 437.839 417.603 439.329 418.532L521.518 465.834C527.961 469.544 533.206 478.587 533.206 485.914L533.16 717.068Z" fill="#BCBEC0"/>
</g>
</g>
<path fill-rule="evenodd" clip-rule="evenodd" d="M248.069 576.606L260.612 525.545C276.811 521.076 283.874 516.896 298.422 513.776C305.639 512.23 312.718 512.538 318.451 516.92C336.776 530.925 373.577 556.49 380.006 566.442C383.401 571.694 378.803 576.554 371.433 578.534C371.764 585.761 367.193 589.005 358.462 588.867C358.753 596.07 355.012 599.643 346.808 599.2C345.614 604.863 340.029 606.026 332.958 603.158L248.069 576.606Z" fill="#FFB78B"/>
<path fill-rule="evenodd" clip-rule="evenodd" d="M379.705 520.11L393.21 567.115L468.124 556.81V490.568L379.705 520.11Z" fill="url(#paint33_linear_98_904)"/>
<path fill-rule="evenodd" clip-rule="evenodd" d="M380.807 523.945C378.325 523.991 375.744 524.777 373.361 524.084C361.459 520.622 346.628 509.54 334.537 512.269C310.396 517.716 309.266 520.048 293.18 532.465C287.899 536.541 292.13 543.671 298.953 541.28C312.625 537.688 320.091 524.35 333.192 531.78C350.552 541.621 366.234 554.657 381.097 569.248L391.651 561.694L380.807 523.945Z" fill="#F4A778"/>
<path fill-rule="evenodd" clip-rule="evenodd" d="M270.569 583.644C275.226 585.103 281.744 579.569 285.969 577.781C290.438 575.892 296.312 577.806 292.434 586.127C297.228 583.017 301.695 579.627 305.78 575.91C310.355 571.747 317.623 576.433 313.822 583.269L310.665 588.954C314.449 586.523 317.965 583.823 321.139 580.782C325.054 577.03 331.89 580.497 329.016 587.948L326.501 594.473C328.503 592.913 330.053 591.554 331.86 589.503C334.303 586.73 338.866 589.338 337.657 594.473C335.816 602.287 324.61 618.624 316.903 605.746C311.119 611.116 302.412 607.656 301.068 599.509C292.891 604.736 285.053 602.12 284.274 594.59C275.451 596.767 269.473 591.428 270.569 583.644Z" fill="#F4A778"/>
<path fill-rule="evenodd" clip-rule="evenodd" d="M357.53 263.449H259.067C245.043 263.449 233.674 274.818 233.674 288.843V369.096C233.674 383.121 245.043 394.49 259.067 394.49H281.191C285.118 394.49 288.748 396.583 290.715 399.983L301.419 418.488C304.479 423.78 312.119 423.78 315.179 418.488L325.884 399.983C327.851 396.584 331.479 394.49 335.407 394.49H357.531C371.556 394.49 382.925 383.121 382.925 369.096V288.843C382.923 274.818 371.554 263.449 357.53 263.449Z" fill="#BE173B"/>
<path fill-rule="evenodd" clip-rule="evenodd" d="M357.53 254H259.067C245.043 254 233.674 265.369 233.674 279.394V359.647C233.674 373.671 245.043 385.041 259.067 385.041H281.191C285.118 385.041 288.748 387.134 290.715 390.534L301.419 409.039C304.479 414.33 312.119 414.33 315.179 409.039L325.884 390.534C327.851 387.135 331.479 385.041 335.407 385.041H357.531C371.556 385.041 382.925 373.671 382.925 359.647V279.394C382.923 265.369 371.554 254 357.53 254Z" fill="url(#paint34_linear_98_904)"/>
<path fill-rule="evenodd" clip-rule="evenodd" d="M346.746 313.526C346.207 302.083 336.774 292.835 325.323 292.508C318.571 292.316 312.476 295.152 308.3 299.76C304.123 295.152 298.03 292.314 291.277 292.508C279.825 292.835 270.392 302.083 269.853 313.526C269.524 320.522 272.45 326.841 277.246 331.105C284.714 337.745 291.93 344.66 298.464 352.22L302.145 356.478C305.389 360.231 311.207 360.231 314.451 356.478L318.132 352.22C324.666 344.66 331.882 337.744 339.35 331.105C344.149 326.841 347.075 320.52 346.746 313.526Z" fill="white"/>
<path fill-rule="evenodd" clip-rule="evenodd" d="M163.372 384H52.5255C47.4328 384 43.2676 388.165 43.2676 393.258V435.408C43.2676 440.501 47.4328 444.667 52.5255 444.667H115.202L140.117 467.459V444.667H163.372C168.465 444.667 172.631 440.501 172.631 435.408V393.258C172.631 388.165 168.465 384 163.372 384Z" fill="url(#paint35_linear_98_904)"/>
<path fill-rule="evenodd" clip-rule="evenodd" d="M128.753 412.986C128.753 415.868 131.089 418.206 133.972 418.206C136.854 418.206 139.192 415.868 139.192 412.986C139.192 410.103 136.855 407.766 133.972 407.766C131.088 407.766 128.753 410.103 128.753 412.986Z" fill="white"/>
<path fill-rule="evenodd" clip-rule="evenodd" d="M102.73 412.986C102.73 415.868 105.066 418.206 107.951 418.206C110.833 418.206 113.171 415.868 113.171 412.986C113.171 410.103 110.834 407.766 107.951 407.766C105.066 407.766 102.73 410.103 102.73 412.986Z" fill="white"/>
<path fill-rule="evenodd" clip-rule="evenodd" d="M76.709 412.986C76.709 415.868 79.0461 418.206 81.9293 418.206C84.8099 418.206 87.1495 415.868 87.1495 412.986C87.1495 410.103 84.8111 407.766 81.9293 407.766C79.0461 407.766 76.709 410.103 76.709 412.986Z" fill="white"/>
<path fill-rule="evenodd" clip-rule="evenodd" d="M569.428 384H459.19C454.125 384 449.982 388.143 449.982 393.207V435.126C449.982 440.19 454.125 444.333 459.19 444.333H482.318V467L507.095 444.333H569.428C574.492 444.333 578.635 440.19 578.635 435.126V393.207C578.635 388.143 574.492 384 569.428 384Z" fill="url(#paint36_linear_98_904)"/>
<path fill-rule="evenodd" clip-rule="evenodd" d="M532.278 415.837C532.27 414.596 531.545 413.539 530.503 413.028C531.54 412.504 532.254 411.435 532.249 410.196C532.236 408.451 530.812 407.044 529.068 407.053C528.892 407.054 528.557 407.055 528.557 407.055L520.865 407.271C520.865 407.271 522.451 400.426 521.831 396.755C521.21 393.083 516.244 391.488 516.182 395.59C516.121 399.693 515.617 401.063 512.476 404.669C510.422 407.028 509.315 408.871 508.794 409.861C508.533 410.358 508.409 410.907 508.412 411.468L508.503 426.997C508.507 427.846 509.2 428.531 510.05 428.526L528.677 428.418C528.677 428.418 529.015 428.416 529.191 428.416C530.936 428.405 532.491 427.118 532.344 425.378C532.22 423.955 530.473 423.423 530.473 423.423C530.473 423.423 532.606 423.169 532.596 421.103C532.583 419.181 531.386 418.717 530.537 418.666C531.571 418.142 532.285 417.076 532.278 415.837Z" fill="white"/>
</g>
<defs>
<filter id="filter0_f_98_904" x="-204.212" y="385.71" width="825.387" height="883.014" filterUnits="userSpaceOnUse" color-interpolation-filters="sRGB">
<feFlood flood-opacity="0" result="BackgroundImageFix"/>
<feBlend mode="normal" in="SourceGraphic" in2="BackgroundImageFix" result="shape"/>
<feGaussianBlur stdDeviation="104.557" result="effect1_foregroundBlur_98_904"/>
</filter>
<filter id="filter1_f_98_904" x="-490.512" y="350.222" width="877.218" height="877.218" filterUnits="userSpaceOnUse" color-interpolation-filters="sRGB">
<feFlood flood-opacity="0" result="BackgroundImageFix"/>
<feBlend mode="normal" in="SourceGraphic" in2="BackgroundImageFix" result="shape"/>
<feGaussianBlur stdDeviation="129.651" result="effect1_foregroundBlur_98_904"/>
</filter>
<filter id="filter2_f_98_904" x="41.3932" y="268.006" width="956.474" height="1097.4" filterUnits="userSpaceOnUse" color-interpolation-filters="sRGB">
<feFlood flood-opacity="0" result="BackgroundImageFix"/>
<feBlend mode="normal" in="SourceGraphic" in2="BackgroundImageFix" result="shape"/>
<feGaussianBlur stdDeviation="129.651" result="effect1_foregroundBlur_98_904"/>
</filter>
<linearGradient id="paint0_linear_98_904" x1="108" y1="734" x2="230.5" y2="695" gradientUnits="userSpaceOnUse">
<stop stop-opacity="0.15"/>
<stop offset="1" stop-opacity="0"/>
</linearGradient>
<linearGradient id="paint1_linear_98_904" x1="73.3362" y1="545.874" x2="119.491" y2="545.874" gradientUnits="userSpaceOnUse">
<stop stop-color="#6BE1D2"/>
<stop offset="0.6" stop-color="#4ECAB9"/>
<stop offset="1" stop-color="#30B3A0"/>
</linearGradient>
<linearGradient id="paint2_linear_98_904" x1="44.1997" y1="614.946" x2="115.061" y2="614.946" gradientUnits="userSpaceOnUse">
<stop stop-color="#F1B85D"/>
<stop offset="1" stop-color="#F16F2F"/>
</linearGradient>
<linearGradient id="paint3_linear_98_904" x1="234.673" y1="483.057" x2="233.92" y2="513.204" gradientUnits="userSpaceOnUse">
<stop stop-color="#F1B85D"/>
<stop offset="1" stop-color="#F16F2F"/>
</linearGradient>
<linearGradient id="paint4_linear_98_904" x1="251.06" y1="585.018" x2="215.164" y2="585.018" gradientUnits="userSpaceOnUse">
<stop stop-color="#69E0D0"/>
<stop offset="1" stop-color="#3FAFA0"/>
</linearGradient>
<linearGradient id="paint5_linear_98_904" x1="136.02" y1="595.198" x2="152.994" y2="673.898" gradientUnits="userSpaceOnUse">
<stop stop-color="#6AE0D1"/>
<stop offset="1" stop-color="#3EBEAC"/>
</linearGradient>
<linearGradient id="paint6_linear_98_904" x1="563.981" y1="476.406" x2="524.036" y2="561.571" gradientUnits="userSpaceOnUse">
<stop stop-color="#6BE1D2"/>
<stop offset="0.6" stop-color="#4ECAB9"/>
<stop offset="1" stop-color="#30B3A0"/>
</linearGradient>
<linearGradient id="paint7_linear_98_904" x1="390.975" y1="539.598" x2="424.987" y2="539.598" gradientUnits="userSpaceOnUse">
<stop stop-color="#6BE1D2"/>
<stop offset="0.6" stop-color="#4ECAB9"/>
<stop offset="1" stop-color="#30B3A0"/>
</linearGradient>
<linearGradient id="paint8_linear_98_904" x1="372.262" y1="540.808" x2="433.686" y2="624.466" gradientUnits="userSpaceOnUse">
<stop stop-color="#F1B85D"/>
<stop offset="1" stop-color="#F16F2F"/>
</linearGradient>
<linearGradient id="paint9_linear_98_904" x1="528.5" y1="726.5" x2="399" y2="698.001" gradientUnits="userSpaceOnUse">
<stop stop-opacity="0.15"/>
<stop offset="1" stop-opacity="0"/>
</linearGradient>
<linearGradient id="paint10_linear_98_904" x1="584.087" y1="530.66" x2="517.011" y2="631.275" gradientUnits="userSpaceOnUse">
<stop stop-color="#770BB4"/>
<stop offset="0.77" stop-color="#5C0E8F"/>
<stop offset="1" stop-color="#41116B"/>
</linearGradient>
<linearGradient id="paint11_linear_98_904" x1="466.785" y1="624.323" x2="506.481" y2="624.323" gradientUnits="userSpaceOnUse">
<stop stop-color="#F1B85D"/>
<stop offset="1" stop-color="#F16F2F"/>
</linearGradient>
<linearGradient id="paint12_linear_98_904" x1="230.283" y1="412.538" x2="117.909" y2="607.79" gradientUnits="userSpaceOnUse">
<stop offset="0.06" stop-color="#200041"/>
<stop offset="0.26" stop-color="#210243"/>
<stop offset="0.36" stop-color="#25084B"/>
<stop offset="0.43" stop-color="#2C1358"/>
<stop offset="0.47" stop-color="#311B61"/>
<stop offset="0.48" stop-color="#351F65"/>
<stop offset="0.5" stop-color="#422C73"/>
<stop offset="0.51" stop-color="#584188"/>
<stop offset="0.52" stop-color="#765FA7"/>
<stop offset="0.53" stop-color="#8770B8"/>
<stop offset="0.54" stop-color="#7E67AE"/>
<stop offset="0.56" stop-color="#5C468D"/>
<stop offset="0.59" stop-color="#442E75"/>
<stop offset="0.61" stop-color="#362066"/>
<stop offset="0.63" stop-color="#311B61"/>
<stop offset="0.67" stop-color="#2A1155"/>
<stop offset="0.75" stop-color="#230446"/>
<stop offset="0.81" stop-color="#200041"/>
<stop offset="1" stop-color="#200041"/>
</linearGradient>
<radialGradient id="paint13_radial_98_904" cx="0" cy="0" r="1" gradientUnits="userSpaceOnUse" gradientTransform="translate(54.8327 491.746) rotate(180) scale(211.875 211.212)">
<stop stop-color="#711F56"/>
<stop offset="0.16" stop-color="#6C1E52"/>
<stop offset="0.36" stop-color="#5C1946"/>
<stop offset="0.58" stop-color="#431233"/>
<stop offset="0.82" stop-color="#200918"/>
<stop offset="1"/>
</radialGradient>
<radialGradient id="paint14_radial_98_904" cx="0" cy="0" r="1" gradientUnits="userSpaceOnUse" gradientTransform="translate(90.2692 476.651) rotate(180) scale(124.825 124.434)">
<stop stop-color="#AF8AFC"/>
<stop offset="1" stop-color="#10054D"/>
</radialGradient>
<linearGradient id="paint15_linear_98_904" x1="80.2093" y1="592.32" x2="425.089" y2="484.011" gradientUnits="userSpaceOnUse">
<stop offset="0.19" stop-color="#3D065F"/>
<stop offset="0.93" stop-color="#3D065F"/>
</linearGradient>
<linearGradient id="paint16_linear_98_904" x1="75.7087" y1="725.45" x2="250.054" y2="355.899" gradientUnits="userSpaceOnUse">
<stop stop-color="#311B61"/>
<stop offset="0.2" stop-color="#290F52"/>
<stop offset="0.49" stop-color="#200041"/>
<stop offset="1" stop-color="#0F001F"/>
</linearGradient>
<linearGradient id="paint17_linear_98_904" x1="204.15" y1="570.814" x2="94.0954" y2="570.814" gradientUnits="userSpaceOnUse">
<stop stop-color="#311B61"/>
<stop offset="0.2" stop-color="#290F52"/>
<stop offset="0.49" stop-color="#200041"/>
<stop offset="1" stop-color="#0F001F"/>
</linearGradient>
<linearGradient id="paint18_linear_98_904" x1="216.582" y1="442.578" x2="49.9671" y2="761.286" gradientUnits="userSpaceOnUse">
<stop offset="0.01" stop-color="#9F19AB"/>
<stop offset="0.43" stop-color="#5F27BD"/>
<stop offset="0.9" stop-color="#3D065F"/>
</linearGradient>
<linearGradient id="paint19_linear_98_904" x1="126.42" y1="521.043" x2="116.667" y2="538.066" gradientUnits="userSpaceOnUse">
<stop stop-color="#311B61"/>
<stop offset="0.2" stop-color="#290F52"/>
<stop offset="0.49" stop-color="#200041"/>
<stop offset="1" stop-color="#0F001F"/>
</linearGradient>
<linearGradient id="paint20_linear_98_904" x1="78.1622" y1="535.129" x2="91.746" y2="534.534" gradientUnits="userSpaceOnUse">
<stop stop-color="#3D065F"/>
<stop offset="1" stop-color="#5F27BD"/>
</linearGradient>
<radialGradient id="paint21_radial_98_904" cx="0" cy="0" r="1" gradientUnits="userSpaceOnUse" gradientTransform="translate(84.9891 529.344) rotate(180) scale(7.97811 7.95321)">
<stop stop-color="#711F56"/>
<stop offset="0.16" stop-color="#6C1E52"/>
<stop offset="0.36" stop-color="#5C1946"/>
<stop offset="0.58" stop-color="#431233"/>
<stop offset="0.82" stop-color="#200918"/>
<stop offset="1"/>
</radialGradient>
<linearGradient id="paint22_linear_98_904" x1="173.062" y1="540.111" x2="261.481" y2="540.111" gradientUnits="userSpaceOnUse">
<stop stop-color="#E35166"/>
<stop offset="1" stop-color="#BD193D"/>
</linearGradient>
<linearGradient id="paint23_linear_98_904" x1="399.718" y1="412.538" x2="512.092" y2="607.79" gradientUnits="userSpaceOnUse">
<stop offset="0.06" stop-color="#200041"/>
<stop offset="0.26" stop-color="#210243"/>
<stop offset="0.36" stop-color="#25084B"/>
<stop offset="0.43" stop-color="#2C1358"/>
<stop offset="0.47" stop-color="#311B61"/>
<stop offset="0.48" stop-color="#351F65"/>
<stop offset="0.5" stop-color="#422C73"/>
<stop offset="0.51" stop-color="#584188"/>
<stop offset="0.52" stop-color="#765FA7"/>
<stop offset="0.53" stop-color="#8770B8"/>
<stop offset="0.54" stop-color="#7E67AE"/>
<stop offset="0.56" stop-color="#5C468D"/>
<stop offset="0.59" stop-color="#442E75"/>
<stop offset="0.61" stop-color="#362066"/>
<stop offset="0.63" stop-color="#311B61"/>
<stop offset="0.67" stop-color="#2A1155"/>
<stop offset="0.75" stop-color="#230446"/>
<stop offset="0.81" stop-color="#200041"/>
<stop offset="1" stop-color="#200041"/>
</linearGradient>
<radialGradient id="paint24_radial_98_904" cx="0" cy="0" r="1" gradientUnits="userSpaceOnUse" gradientTransform="translate(575.167 491.746) scale(211.875 211.212)">
<stop stop-color="#711F56"/>
<stop offset="0.16" stop-color="#6C1E52"/>
<stop offset="0.36" stop-color="#5C1946"/>
<stop offset="0.58" stop-color="#431233"/>
<stop offset="0.82" stop-color="#200918"/>
<stop offset="1"/>
</radialGradient>
<radialGradient id="paint25_radial_98_904" cx="0" cy="0" r="1" gradientUnits="userSpaceOnUse" gradientTransform="translate(539.731 476.651) scale(124.825 124.434)">
<stop stop-color="#AF8AFC"/>
<stop offset="1" stop-color="#10054D"/>
</radialGradient>
<linearGradient id="paint26_linear_98_904" x1="549.791" y1="592.32" x2="204.911" y2="484.011" gradientUnits="userSpaceOnUse">
<stop offset="0.19" stop-color="#3D065F"/>
<stop offset="0.93" stop-color="#3D065F"/>
</linearGradient>
<linearGradient id="paint27_linear_98_904" x1="554.291" y1="725.45" x2="379.946" y2="355.899" gradientUnits="userSpaceOnUse">
<stop stop-color="#311B61"/>
<stop offset="0.2" stop-color="#290F52"/>
<stop offset="0.49" stop-color="#200041"/>
<stop offset="1" stop-color="#0F001F"/>
</linearGradient>
<linearGradient id="paint28_linear_98_904" x1="425.85" y1="570.814" x2="535.904" y2="570.814" gradientUnits="userSpaceOnUse">
<stop stop-color="#311B61"/>
<stop offset="0.2" stop-color="#290F52"/>
<stop offset="0.49" stop-color="#200041"/>
<stop offset="1" stop-color="#0F001F"/>
</linearGradient>
<linearGradient id="paint29_linear_98_904" x1="413.418" y1="442.578" x2="580.033" y2="761.286" gradientUnits="userSpaceOnUse">
<stop offset="0.01" stop-color="#9F19AB"/>
<stop offset="0.43" stop-color="#5F27BD"/>
<stop offset="0.9" stop-color="#3D065F"/>
</linearGradient>
<linearGradient id="paint30_linear_98_904" x1="503.58" y1="521.043" x2="513.333" y2="538.066" gradientUnits="userSpaceOnUse">
<stop stop-color="#311B61"/>
<stop offset="0.2" stop-color="#290F52"/>
<stop offset="0.49" stop-color="#200041"/>
<stop offset="1" stop-color="#0F001F"/>
</linearGradient>
<linearGradient id="paint31_linear_98_904" x1="551.838" y1="535.129" x2="538.254" y2="534.534" gradientUnits="userSpaceOnUse">
<stop stop-color="#3D065F"/>
<stop offset="1" stop-color="#5F27BD"/>
</linearGradient>
<radialGradient id="paint32_radial_98_904" cx="0" cy="0" r="1" gradientUnits="userSpaceOnUse" gradientTransform="translate(545.011 529.344) scale(7.97811 7.95321)">
<stop stop-color="#711F56"/>
<stop offset="0.16" stop-color="#6C1E52"/>
<stop offset="0.36" stop-color="#5C1946"/>
<stop offset="0.58" stop-color="#431233"/>
<stop offset="0.82" stop-color="#200918"/>
<stop offset="1"/>
</radialGradient>
<linearGradient id="paint33_linear_98_904" x1="419.464" y1="484.475" x2="435.543" y2="559.842" gradientUnits="userSpaceOnUse">
<stop stop-color="#8801C8"/>
<stop offset="1" stop-color="#42107F"/>
</linearGradient>
<linearGradient id="paint34_linear_98_904" x1="308.299" y1="252.537" x2="308.299" y2="400.488" gradientUnits="userSpaceOnUse">
<stop stop-color="#D93D5F"/>
<stop offset="1" stop-color="#F05A7C"/>
</linearGradient>
<linearGradient id="paint35_linear_98_904" x1="107.95" y1="384.102" x2="107.95" y2="455.901" gradientUnits="userSpaceOnUse">
<stop stop-color="#7DD9E8"/>
<stop offset="1" stop-color="#73ACC9"/>
</linearGradient>
<linearGradient id="paint36_linear_98_904" x1="514.309" y1="384.858" x2="514.309" y2="450.455" gradientUnits="userSpaceOnUse">
<stop stop-color="#7DD9E8"/>
<stop offset="1" stop-color="#73ACC9"/>
</linearGradient>
<clipPath id="clip0_98_904">
<path d="M634 774C634 790.569 620.569 804 604 804H0V0H604C620.569 0 634 13.4315 634 30V774Z" fill="white"/>
</clipPath>
<clipPath id="clip1_98_904">
<rect width="130" height="334" fill="white" transform="matrix(-1 0 0 1 210 402)"/>
</clipPath>
<clipPath id="clip2_98_904">
<rect width="130" height="334" fill="white" transform="translate(420 402)"/>
</clipPath>
</defs>
</svg>
