<svg width="24" height="24" viewBox="0 0 24 24" fill="none" xmlns="http://www.w3.org/2000/svg">
<g id="Box#3">
<path id="Combined Shape" fill-rule="evenodd" clip-rule="evenodd" d="M3.93457 9.67469L10.702 13.647C10.7749 13.6898 10.8513 13.7207 10.9291 13.7403V21.4444L4.41723 17.5264C4.11806 17.3465 3.93457 17.0193 3.93457 16.6659V9.67469ZM19.6723 9.56909V16.6659C19.6723 17.0193 19.4888 17.3465 19.1896 17.5264L12.6777 21.4444V13.6728C12.6936 13.6647 12.7093 13.6562 12.7249 13.647L19.6723 9.56909Z" fill="#3662FE"/>
<path id="Path" fill-rule="evenodd" clip-rule="evenodd" d="M4.14697 7.74671C4.22964 7.64058 4.33397 7.55089 4.45561 7.48502L11.3409 3.75667C11.6299 3.60015 11.9766 3.60015 12.2656 3.75667L19.1509 7.48502C19.2447 7.5358 19.3281 7.60073 19.3993 7.67643L11.8504 12.1075C11.8008 12.1366 11.755 12.1699 11.7133 12.2068C11.6716 12.1699 11.6258 12.1366 11.5762 12.1075L4.14697 7.74671Z" fill="#BA45F3"/>
</g>
</svg>
