<svg width="90" height="90" viewBox="0 0 90 90" fill="none" xmlns="http://www.w3.org/2000/svg">
<rect width="90" height="90" rx="15" fill="#3A3A44"/>
<path opacity="0.4" d="M50.587 31.668H39.4137C34.5603 31.668 31.667 34.5613 31.667 39.4146V50.5746C31.667 55.4413 34.5603 58.3346 39.4137 58.3346H50.5737C55.427 58.3346 58.3203 55.4413 58.3203 50.588V39.4146C58.3337 34.5613 55.4403 31.668 50.587 31.668Z" fill="white"/>
<path d="M51.3316 38.332H44.8916C44.345 38.332 43.8916 38.7854 43.8916 39.332C43.8916 39.8787 44.345 40.332 44.8916 40.332H48.9183L38.625 50.6254C38.2383 51.012 38.2383 51.652 38.625 52.0387C38.825 52.2387 39.0783 52.332 39.3316 52.332C39.585 52.332 39.8383 52.2387 40.0383 52.0387L50.3316 41.7454V45.772C50.3316 46.3187 50.785 46.772 51.3316 46.772C51.8783 46.772 52.3316 46.3187 52.3316 45.772V39.332C52.3316 38.7854 51.8783 38.332 51.3316 38.332Z" fill="white"/>
</svg>
