<svg width="90" height="90" viewBox="0 0 90 90" fill="none" xmlns="http://www.w3.org/2000/svg">
<rect width="90" height="90" rx="15" fill="#3A3A44"/>
<path opacity="0.4" d="M57.1066 40.4413V49.5613C57.1066 51.0546 56.3066 52.4414 55.0132 53.2014L47.0932 57.7747C45.7999 58.5213 44.1999 58.5213 42.8932 57.7747L34.9732 53.2014C33.6799 52.4547 32.8799 51.068 32.8799 49.5613V40.4413C32.8799 38.948 33.6799 37.5613 34.9732 36.8013L42.8932 32.228C44.1866 31.4813 45.7865 31.4813 47.0932 32.228L55.0132 36.8013C56.3066 37.5613 57.1066 38.9347 57.1066 40.4413Z" fill="white"/>
<path d="M44.9992 44.9985C46.715 44.9985 48.1059 43.6075 48.1059 41.8918C48.1059 40.176 46.715 38.7852 44.9992 38.7852C43.2835 38.7852 41.8926 40.176 41.8926 41.8918C41.8926 43.6075 43.2835 44.9985 44.9992 44.9985Z" fill="white"/>
<path d="M48.5732 51.2099C49.6532 51.2099 50.2799 50.01 49.6799 49.1166C48.7732 47.77 47.0132 46.8633 44.9999 46.8633C42.9866 46.8633 41.2266 47.77 40.3199 49.1166C39.7199 50.01 40.3466 51.2099 41.4266 51.2099H48.5732Z" fill="white"/>
</svg>
