<svg width="90" height="90" viewBox="0 0 90 90" fill="none" xmlns="http://www.w3.org/2000/svg">
<rect width="90" height="90" rx="15" fill="#3A3A44"/>
<path opacity="0.4" d="M41.0003 31.668C37.507 31.668 34.667 34.508 34.667 38.0013C34.667 41.428 37.347 44.2013 40.8403 44.3213C40.947 44.308 41.0537 44.308 41.1337 44.3213C41.1603 44.3213 41.1737 44.3213 41.2003 44.3213C41.2137 44.3213 41.2137 44.3213 41.227 44.3213C44.6403 44.2013 47.3203 41.428 47.3337 38.0013C47.3337 34.508 44.4937 31.668 41.0003 31.668Z" fill="white"/>
<path d="M47.7733 47.8678C44.0533 45.3878 37.9866 45.3878 34.2399 47.8678C32.5466 49.0011 31.6133 50.5345 31.6133 52.1745C31.6133 53.8145 32.5466 55.3345 34.2266 56.4545C36.0933 57.7078 38.5466 58.3345 40.9999 58.3345C43.4533 58.3345 45.9066 57.7078 47.7733 56.4545C49.4533 55.3211 50.3866 53.8011 50.3866 52.1478C50.3733 50.5078 49.4533 48.9878 47.7733 47.8678Z" fill="white"/>
<path opacity="0.4" d="M55.6535 38.7881C55.8668 41.3748 54.0268 43.6414 51.4801 43.9481C51.4668 43.9481 51.4668 43.9481 51.4535 43.9481H51.4135C51.3335 43.9481 51.2535 43.9481 51.1868 43.9748C49.8935 44.0414 48.7068 43.6281 47.8135 42.8681C49.1868 41.6414 49.9735 39.8014 49.8135 37.8014C49.7201 36.7214 49.3468 35.7348 48.7868 34.8948C49.2935 34.6414 49.8801 34.4814 50.4801 34.4281C53.0935 34.2014 55.4268 36.1481 55.6535 38.7881Z" fill="white"/>
<path d="M58.32 51.1218C58.2133 52.4152 57.3867 53.5352 56 54.2952C54.6667 55.0285 52.9867 55.3752 51.32 55.3352C52.28 54.4685 52.84 53.3885 52.9467 52.2418C53.08 50.5885 52.2933 49.0018 50.72 47.7352C49.8267 47.0285 48.7867 46.4685 47.6533 46.0552C50.6 45.2018 54.3067 45.7752 56.5867 47.6152C57.8133 48.6018 58.44 49.8418 58.32 51.1218Z" fill="white"/>
</svg>
