<svg width="90" height="90" viewBox="0 0 90 90" fill="none" xmlns="http://www.w3.org/2000/svg">
<rect width="90" height="90" rx="15" fill="#3A3A44"/>
<path opacity="0.4" d="M52.3734 39.3613C52.28 39.348 52.1867 39.348 52.0934 39.3613C50.0267 39.2946 48.3867 37.6013 48.3867 35.5213C48.3867 33.4013 50.1067 31.668 52.2401 31.668C54.3601 31.668 56.0934 33.388 56.0934 35.5213C56.0801 37.6013 54.44 39.2946 52.3734 39.3613Z" fill="white"/>
<path opacity="0.4" d="M56.7205 48.6005C55.2271 49.6005 53.1338 49.9739 51.2005 49.7205C51.7071 48.6272 51.9738 47.4139 51.9871 46.1339C51.9871 44.8005 51.6938 43.5339 51.1338 42.4272C53.1071 42.1605 55.2005 42.5339 56.7071 43.5339C58.8138 44.9205 58.8138 47.2005 56.7205 48.6005Z" fill="white"/>
<path opacity="0.4" d="M37.5862 39.3613C37.6795 39.348 37.7729 39.348 37.8662 39.3613C39.9329 39.2946 41.5729 37.6013 41.5729 35.5213C41.5729 33.4013 39.8529 31.668 37.7195 31.668C35.5995 31.668 33.8662 33.388 33.8662 35.5213C33.8795 37.6013 35.5195 39.2946 37.5862 39.3613Z" fill="white"/>
<path opacity="0.4" d="M37.7335 46.1341C37.7335 47.4275 38.0135 48.6541 38.5202 49.7608C36.6402 49.9608 34.6802 49.5608 33.2402 48.6141C31.1335 47.2141 31.1335 44.9341 33.2402 43.5341C34.6668 42.5741 36.6802 42.1875 38.5735 42.4008C38.0268 43.5208 37.7335 44.7875 37.7335 46.1341Z" fill="white"/>
<path d="M45.1594 50.16C45.0527 50.1467 44.9327 50.1467 44.8127 50.16C42.3594 50.08 40.3994 48.0667 40.3994 45.5867C40.3994 43.0533 42.4394 41 44.9861 41C47.5194 41 49.5727 43.0533 49.5727 45.5867C49.5727 48.0667 47.6261 50.08 45.1594 50.16Z" fill="white"/>
<path d="M40.8264 52.9195C38.8131 54.2662 38.8131 56.4795 40.8264 57.8129C43.1197 59.3462 46.8797 59.3462 49.1731 57.8129C51.1864 56.4662 51.1864 54.2529 49.1731 52.9195C46.8931 51.3862 43.1331 51.3862 40.8264 52.9195Z" fill="white"/>
</svg>
