<svg width="90" height="90" viewBox="0 0 90 90" fill="none" xmlns="http://www.w3.org/2000/svg">
<rect width="90" height="90" rx="15" fill="#3A3A44"/>
<path opacity="0.4" d="M45.0003 58.2018C52.3641 58.2018 58.3337 52.2323 58.3337 44.8685C58.3337 37.5047 52.3641 31.5352 45.0003 31.5352C37.6365 31.5352 31.667 37.5047 31.667 44.8685C31.667 52.2323 37.6365 58.2018 45.0003 58.2018Z" fill="white"/>
<path d="M48.0135 45L46.0002 44.2933V39.7733H46.4802C47.5602 39.7733 48.4402 40.72 48.4402 41.88C48.4402 42.4267 48.8935 42.88 49.4402 42.88C49.9869 42.88 50.4402 42.4267 50.4402 41.88C50.4402 39.6133 48.6669 37.7733 46.4802 37.7733H46.0002V37C46.0002 36.4533 45.5469 36 45.0002 36C44.4535 36 44.0002 36.4533 44.0002 37V37.7733H43.1335C41.1602 37.7733 39.5469 39.44 39.5469 41.48C39.5469 43.8667 40.9335 44.6267 41.9869 45L44.0002 45.7067V50.2133H43.5202C42.4402 50.2133 41.5602 49.2667 41.5602 48.1067C41.5602 47.56 41.1069 47.1067 40.5602 47.1067C40.0135 47.1067 39.5602 47.56 39.5602 48.1067C39.5602 50.3733 41.3335 52.2133 43.5202 52.2133H44.0002V53C44.0002 53.5467 44.4535 54 45.0002 54C45.5469 54 46.0002 53.5467 46.0002 53V52.2267H46.8669C48.8402 52.2267 50.4535 50.56 50.4535 48.52C50.4402 46.12 49.0535 45.36 48.0135 45ZM42.6535 43.12C41.9735 42.88 41.5602 42.6533 41.5602 41.4933C41.5602 40.5467 42.2669 39.7867 43.1469 39.7867H44.0135V43.6L42.6535 43.12ZM46.8669 50.2267H46.0002V46.4133L47.3469 46.88C48.0269 47.12 48.4402 47.3467 48.4402 48.5067C48.4402 49.4533 47.7335 50.2267 46.8669 50.2267Z" fill="white"/>
</svg>
