<svg width="90" height="90" viewBox="0 0 90 90" fill="none" xmlns="http://www.w3.org/2000/svg">
<rect width="90" height="90" rx="15" fill="#3A3A44"/>
<path d="M51.3333 33.748V31.668C51.3333 31.1213 50.88 30.668 50.3333 30.668C49.7866 30.668 49.3333 31.1213 49.3333 31.668V33.668H40.6666V31.668C40.6666 31.1213 40.2133 30.668 39.6666 30.668C39.12 30.668 38.6666 31.1213 38.6666 31.668V33.748C35.0666 34.0813 33.32 36.228 33.0533 39.4146C33.0266 39.8013 33.3466 40.1213 33.72 40.1213H56.28C56.6666 40.1213 56.9866 39.788 56.9466 39.4146C56.68 36.228 54.9333 34.0813 51.3333 33.748Z" fill="white"/>
<path opacity="0.4" d="M57 43.4521V45.7721C57 46.5855 56.28 47.2122 55.48 47.0788C55.1067 47.0255 54.72 46.9855 54.3333 46.9855C50.2933 46.9855 47 50.2788 47 54.3188C47 54.9321 47.24 55.7855 47.4933 56.5588C47.7867 57.4255 47.1467 58.3188 46.2267 58.3188H39.6667C35 58.3188 33 55.6521 33 51.6521V43.4388C33 42.7055 33.6 42.1055 34.3333 42.1055H55.6667C56.4 42.1188 57 42.7188 57 43.4521Z" fill="white"/>
<path d="M54.3333 49C51.3867 49 49 51.3867 49 54.3333C49 55.3333 49.28 56.28 49.7733 57.08C50.6933 58.6267 52.3867 59.6667 54.3333 59.6667C56.28 59.6667 57.9733 58.6267 58.8933 57.08C59.3867 56.28 59.6667 55.3333 59.6667 54.3333C59.6667 51.3867 57.28 49 54.3333 49ZM57.0933 53.76L54.2533 56.3867C54.0667 56.56 53.8133 56.6533 53.5733 56.6533C53.32 56.6533 53.0667 56.56 52.8667 56.36L51.5467 55.04C51.16 54.6533 51.16 54.0133 51.5467 53.6267C51.9333 53.24 52.5733 53.24 52.96 53.6267L53.6 54.2667L55.7333 52.2933C56.1333 51.92 56.7733 51.9467 57.1467 52.3467C57.52 52.7467 57.4933 53.3733 57.0933 53.76Z" fill="white"/>
<path d="M40.3333 48.9999C39.9867 48.9999 39.64 48.8532 39.3867 48.6132C39.1467 48.3599 39 48.0132 39 47.6666C39 47.3199 39.1467 46.9732 39.3867 46.7199C39.6933 46.4132 40.16 46.2665 40.6 46.3599C40.68 46.3732 40.76 46.3999 40.84 46.4399C40.92 46.4665 41 46.5066 41.08 46.5599C41.1467 46.6132 41.2133 46.6666 41.28 46.7199C41.52 46.9732 41.6667 47.3199 41.6667 47.6666C41.6667 48.0132 41.52 48.3599 41.28 48.6132C41.2133 48.6665 41.1467 48.7199 41.08 48.7732C41 48.8265 40.92 48.8666 40.84 48.8932C40.76 48.9332 40.68 48.9599 40.6 48.9732C40.5067 48.9866 40.4133 48.9999 40.3333 48.9999Z" fill="white"/>
<path d="M45.0003 49.0016C44.6537 49.0016 44.307 48.8549 44.0537 48.6149C43.8137 48.3615 43.667 48.0149 43.667 47.6682C43.667 47.3216 43.8137 46.9749 44.0537 46.7216C44.5603 46.2282 45.4537 46.2282 45.947 46.7216C46.187 46.9749 46.3337 47.3216 46.3337 47.6682C46.3337 48.0149 46.187 48.3615 45.947 48.6149C45.6937 48.8549 45.347 49.0016 45.0003 49.0016Z" fill="white"/>
<path d="M40.3333 53.6652C39.9867 53.6652 39.64 53.5185 39.3867 53.2785C39.1467 53.0252 39 52.6785 39 52.3319C39 51.9852 39.1467 51.6385 39.3867 51.3852C39.52 51.2652 39.6533 51.1718 39.8267 51.1052C40.32 50.8918 40.9067 51.0119 41.28 51.3852C41.52 51.6385 41.6667 51.9852 41.6667 52.3319C41.6667 52.6785 41.52 53.0252 41.28 53.2785C41.0267 53.5185 40.68 53.6652 40.3333 53.6652Z" fill="white"/>
</svg>
