<svg width="90" height="90" viewBox="0 0 90 90" fill="none" xmlns="http://www.w3.org/2000/svg">
<rect width="90" height="90" rx="15" fill="#3A3A44"/>
<path opacity="0.4" d="M45.0003 36.0676V57.4409C44.7737 57.4409 44.5337 57.4009 44.347 57.2942L44.2937 57.2676C41.7337 55.8676 37.267 54.4009 34.3737 54.0142L33.987 53.9609C32.707 53.8009 31.667 52.6009 31.667 51.3209V35.2142C31.667 33.6276 32.9603 32.4276 34.547 32.5609C37.347 32.7876 41.587 34.2009 43.9603 35.6809L44.2937 35.8809C44.4937 36.0009 44.747 36.0676 45.0003 36.0676Z" fill="white"/>
<path d="M58.3333 35.2261V51.3194C58.3333 52.5994 57.2933 53.7994 56.0133 53.9594L55.5733 54.0127C52.6667 54.3994 48.1867 55.8794 45.6267 57.2927C45.4533 57.3994 45.24 57.4394 45 57.4394V36.0661C45.2533 36.0661 45.5067 35.9994 45.7067 35.8794L45.9333 35.7327C48.3067 34.2394 52.56 32.8127 55.36 32.5727H55.44C57.0267 32.4394 58.3333 33.6261 58.3333 35.2261Z" fill="white"/>
<path d="M39.333 41.3203H36.333C35.7863 41.3203 35.333 40.867 35.333 40.3203C35.333 39.7736 35.7863 39.3203 36.333 39.3203H39.333C39.8797 39.3203 40.333 39.7736 40.333 40.3203C40.333 40.867 39.8797 41.3203 39.333 41.3203Z" fill="white"/>
<path d="M40.333 45.3203H36.333C35.7863 45.3203 35.333 44.867 35.333 44.3203C35.333 43.7736 35.7863 43.3203 36.333 43.3203H40.333C40.8797 43.3203 41.333 43.7736 41.333 44.3203C41.333 44.867 40.8797 45.3203 40.333 45.3203Z" fill="white"/>
</svg>
