<svg width="90" height="90" viewBox="0 0 90 90" fill="none" xmlns="http://www.w3.org/2000/svg">
<rect width="90" height="90" rx="15" fill="#3A3A44"/>
<path d="M41.4269 46.7086H45.5469V56.3086C45.5469 57.7219 47.3069 58.3886 48.2402 57.3219L58.3336 45.8552C59.2136 44.8552 58.5069 43.2952 57.1736 43.2952H53.0536V33.6952C53.0536 32.2819 51.2936 31.6152 50.3602 32.6819L40.2669 44.1486C39.4002 45.1486 40.1069 46.7086 41.4269 46.7086Z" fill="white"/>
<path opacity="0.4" d="M40.3333 35.332H31C30.4533 35.332 30 34.8787 30 34.332C30 33.7854 30.4533 33.332 31 33.332H40.3333C40.88 33.332 41.3333 33.7854 41.3333 34.332C41.3333 34.8787 40.88 35.332 40.3333 35.332Z" fill="white"/>
<path opacity="0.4" d="M39 56.668H31C30.4533 56.668 30 56.2146 30 55.668C30 55.1213 30.4533 54.668 31 54.668H39C39.5467 54.668 40 55.1213 40 55.668C40 56.2146 39.5467 56.668 39 56.668Z" fill="white"/>
<path opacity="0.4" d="M35 46H31C30.4533 46 30 45.5467 30 45C30 44.4533 30.4533 44 31 44H35C35.5467 44 36 44.4533 36 45C36 45.5467 35.5467 46 35 46Z" fill="white"/>
</svg>
