<svg width="90" height="90" viewBox="0 0 90 90" fill="none" xmlns="http://www.w3.org/2000/svg">
<rect width="90" height="90" rx="15" fill="#3A3A44"/>
<path opacity="0.4" d="M45.0003 58.3346C52.3641 58.3346 58.3337 52.3651 58.3337 45.0013C58.3337 37.6375 52.3641 31.668 45.0003 31.668C37.6365 31.668 31.667 37.6375 31.667 45.0013C31.667 52.3651 37.6365 58.3346 45.0003 58.3346Z" fill="white"/>
<path d="M51.3464 44.9081C50.7864 44.8147 50.2931 45.2148 50.2131 45.7614C50.0531 46.9214 49.5331 47.9614 48.7331 48.7614C46.8931 50.6014 44.0398 50.7881 41.9731 49.3615H42.9731C43.5198 49.3615 43.9731 48.9081 43.9731 48.3615C43.9731 47.8148 43.5198 47.3615 42.9731 47.3615H39.4131C38.8664 47.3615 38.4131 47.8148 38.4131 48.3615V51.9214C38.4131 52.4681 38.8664 52.9214 39.4131 52.9214C39.9598 52.9214 40.4131 52.4681 40.4131 51.9214V50.6681C41.7464 51.7481 43.3597 52.3214 44.9864 52.3214C46.8531 52.3214 48.7197 51.6148 50.1464 50.1881C51.2531 49.0814 51.9598 47.6547 52.1864 46.0547C52.2798 45.4814 51.8931 44.9747 51.3464 44.9081Z" fill="white"/>
<path d="M38.7866 45.1071C39.2799 45.1071 39.7066 44.7471 39.7732 44.2537C39.9332 43.0937 40.4532 42.0537 41.2532 41.2537C43.0932 39.4137 45.9466 39.2271 48.0133 40.6537H47.0133C46.4666 40.6537 46.0133 41.1071 46.0133 41.6537C46.0133 42.2004 46.4666 42.6537 47.0133 42.6537H50.5732C51.1199 42.6537 51.5732 42.2004 51.5732 41.6537V38.0938C51.5732 37.5471 51.1199 37.0938 50.5732 37.0938C50.0266 37.0938 49.5732 37.5471 49.5732 38.0938V39.3471C46.7066 37.0271 42.5066 37.1737 39.8533 39.8271C38.7466 40.9337 38.0399 42.3604 37.8132 43.9604C37.7332 44.507 38.1199 45.0138 38.6666 45.0938C38.6932 45.1071 38.7466 45.1071 38.7866 45.1071Z" fill="white"/>
</svg>
