<svg width="90" height="90" viewBox="0 0 90 90" fill="none" xmlns="http://www.w3.org/2000/svg">
<rect width="90" height="90" rx="15" fill="#3662FE"/>
<path d="M58.3337 58.332H31.667C31.1203 58.332 30.667 57.8787 30.667 57.332C30.667 56.7854 31.1203 56.332 31.667 56.332H58.3337C58.8803 56.332 59.3337 56.7854 59.3337 57.332C59.3337 57.8787 58.8803 58.332 58.3337 58.332Z" fill="white"/>
<path d="M42 34.3346V58.3346H48V34.3346C48 32.868 47.4 31.668 45.6 31.668H44.4C42.6 31.668 42 32.868 42 34.3346Z" fill="white"/>
<path opacity="0.4" d="M33 42.3346V58.3346H38.3333V42.3346C38.3333 40.868 37.8 39.668 36.2 39.668H35.1333C33.5333 39.668 33 40.868 33 42.3346Z" fill="white"/>
<path opacity="0.4" d="M51.667 48.9987V58.332H57.0003V48.9987C57.0003 47.532 56.467 46.332 54.867 46.332H53.8003C52.2003 46.332 51.667 47.532 51.667 48.9987Z" fill="white"/>
</svg>
