<svg width="90" height="90" viewBox="0 0 90 90" fill="none" xmlns="http://www.w3.org/2000/svg">
<rect width="90" height="90" rx="15" fill="#3A3A44"/>
<path opacity="0.4" d="M57.8806 42.9207L56.5739 48.494C55.4539 53.3073 53.2406 55.254 49.0806 54.854C48.4139 54.8007 47.6939 54.6807 46.9206 54.494L44.6806 53.9607C39.1206 52.6407 37.4006 49.894 38.7072 44.3207L40.0139 38.734C40.2806 37.6007 40.6006 36.614 41.0006 35.8007C42.5606 32.574 45.2139 31.7073 49.6672 32.7607L51.8939 33.2807C57.4806 34.5873 59.1872 37.3473 57.8806 42.9207Z" fill="white"/>
<path d="M49.0795 54.8541C48.2528 55.4141 47.2128 55.8808 45.9461 56.2941L43.8395 56.9874C38.5461 58.6941 35.7595 57.2674 34.0395 51.9741L32.3328 46.7074C30.6261 41.4141 32.0395 38.6141 37.3328 36.9074L39.4395 36.2141C39.9861 36.0408 40.5061 35.8941 40.9995 35.8008C40.5995 36.6141 40.2795 37.6008 40.0128 38.7341L38.7061 44.3208C37.3995 49.8941 39.1195 52.6408 44.6795 53.9608L46.9195 54.4941C47.6928 54.6808 48.4128 54.8008 49.0795 54.8541Z" fill="white"/>
<path d="M52.3198 43.013C52.2398 43.013 52.1598 42.9997 52.0665 42.9864L45.5998 41.3464C45.0665 41.213 44.7465 40.6664 44.8798 40.133C45.0132 39.5997 45.5598 39.2797 46.0932 39.413L52.5598 41.053C53.0932 41.1864 53.4132 41.733 53.2798 42.2664C53.1732 42.7064 52.7598 43.013 52.3198 43.013Z" fill="white"/>
<path d="M48.4138 47.5199C48.3338 47.5199 48.2538 47.5065 48.1605 47.4932L44.2805 46.5065C43.7472 46.3732 43.4272 45.8265 43.5605 45.2932C43.6938 44.7599 44.2405 44.4399 44.7738 44.5732L48.6538 45.5599C49.1872 45.6932 49.5072 46.2399 49.3738 46.7732C49.2672 47.2265 48.8672 47.5199 48.4138 47.5199Z" fill="white"/>
</svg>
