<svg width="90" height="90" viewBox="0 0 90 90" fill="none" xmlns="http://www.w3.org/2000/svg">
<rect width="90" height="90" rx="15" fill="#3A3A44"/>
<path opacity="0.4" d="M58.2937 37.548V46.2146H31.667V37.548C31.667 34.308 34.307 31.668 37.547 31.668H52.4137C55.6537 31.668 58.2937 34.308 58.2937 37.548Z" fill="white"/>
<path d="M31.667 46.2266V46.4932C31.667 49.7466 34.307 52.3732 37.547 52.3732H42.667C43.4003 52.3732 44.0003 52.9732 44.0003 53.7066V54.9999C44.0003 55.7332 43.4003 56.3332 42.667 56.3332H39.4403C38.8937 56.3332 38.4403 56.7866 38.4403 57.3332C38.4403 57.8799 38.8803 58.3332 39.4403 58.3332H50.5737C51.1203 58.3332 51.5737 57.8799 51.5737 57.3332C51.5737 56.7866 51.1203 56.3332 50.5737 56.3332H47.347C46.6137 56.3332 46.0137 55.7332 46.0137 54.9999V53.7066C46.0137 52.9732 46.6137 52.3732 47.347 52.3732H52.427C55.6803 52.3732 58.307 49.7332 58.307 46.4932V46.2266H31.667Z" fill="white"/>
</svg>
