<svg width="90" height="90" viewBox="0 0 90 90" fill="none" xmlns="http://www.w3.org/2000/svg">
<rect width="90" height="90" rx="15" fill="#3A3A44"/>
<path fill-rule="evenodd" clip-rule="evenodd" d="M39.667 30.668C40.2193 30.668 40.667 31.1157 40.667 31.668V35.668C40.667 36.2203 40.2193 36.668 39.667 36.668C39.1147 36.668 38.667 36.2203 38.667 35.668V31.668C38.667 31.1157 39.1147 30.668 39.667 30.668Z" fill="white"/>
<path fill-rule="evenodd" clip-rule="evenodd" d="M50.333 30.668C50.8853 30.668 51.333 31.1157 51.333 31.668V35.668C51.333 36.2203 50.8853 36.668 50.333 36.668C49.7807 36.668 49.333 36.2203 49.333 35.668V31.668C49.333 31.1157 49.7807 30.668 50.333 30.668Z" fill="white"/>
<path opacity="0.4" d="M57.6663 40.1613V51.8413C57.6663 52.0546 57.653 52.268 57.6397 52.468H32.3597C32.3463 52.268 32.333 52.0546 32.333 51.8413V40.1613C32.333 36.5746 35.2397 33.668 38.8263 33.668H51.173C54.7597 33.668 57.6663 36.5746 57.6663 40.1613Z" fill="white"/>
<path d="M57.6404 52.4648C57.3204 55.7582 54.547 58.3315 51.1737 58.3315H38.827C35.4537 58.3315 32.6804 55.7582 32.3604 52.4648H57.6404Z" fill="white"/>
<path d="M47.0403 44.4917C47.6403 44.0784 48.0137 43.4651 48.0137 42.6384C48.0137 40.9051 46.627 40.0117 45.0003 40.0117C43.3737 40.0117 41.9737 40.9051 41.9737 42.6384C41.9737 43.4651 42.3603 44.0917 42.947 44.4917C42.1337 44.9717 41.667 45.7451 41.667 46.6517C41.667 48.3051 42.9337 49.3317 45.0003 49.3317C47.0537 49.3317 48.3337 48.3051 48.3337 46.6517C48.3337 45.7451 47.867 44.9584 47.0403 44.4917ZM45.0003 41.6651C45.6937 41.6651 46.2003 42.0517 46.2003 42.7184C46.2003 43.3717 45.6937 43.7851 45.0003 43.7851C44.307 43.7851 43.8003 43.3717 43.8003 42.7184C43.8003 42.0517 44.307 41.6651 45.0003 41.6651ZM45.0003 47.6651C44.1203 47.6651 43.4803 47.2251 43.4803 46.4251C43.4803 45.6251 44.1203 45.1984 45.0003 45.1984C45.8803 45.1984 46.5203 45.6384 46.5203 46.4251C46.5203 47.2251 45.8803 47.6651 45.0003 47.6651Z" fill="white"/>
</svg>
