<svg width="90" height="90" viewBox="0 0 90 90" fill="none" xmlns="http://www.w3.org/2000/svg">
<rect width="90" height="90" rx="15" fill="#3A3A44"/>
<path opacity="0.4" d="M52.9335 39.2795L52.7468 39.1728L50.8935 38.1061L47.0668 35.8928C45.8935 35.2128 44.1068 35.2128 42.9335 35.8928L39.1068 38.1061L37.2535 39.1861L37.0135 39.3195C34.6268 40.9195 34.4668 41.2128 34.4668 43.7861V49.9328C34.4668 52.5061 34.6268 52.7995 37.0668 54.4395L42.9335 57.8261C43.5201 58.1728 44.2535 58.3328 45.0001 58.3328C45.7335 58.3328 46.4801 58.1728 47.0668 57.8261L52.9868 54.3995C55.3735 52.7995 55.5335 52.5061 55.5335 49.9328V43.7861C55.5335 41.2128 55.3735 40.9195 52.9335 39.2795Z" fill="white"/>
<path d="M37.2529 39.188L39.1063 38.108L42.7596 36.0013L42.9329 35.8946C44.1063 35.2146 45.8929 35.2146 47.0663 35.8946L47.2396 36.0013L50.8929 38.108L52.7463 39.1746V36.3213C52.7463 33.3213 51.0929 31.668 48.0929 31.668H41.8929C38.8929 31.668 37.2529 33.3213 37.2529 36.3213V39.188Z" fill="white"/>
<path d="M48.7867 46.787L47.96 47.8004C47.8267 47.947 47.7333 48.2404 47.7467 48.4404L47.8267 49.747C47.88 50.547 47.3067 50.9604 46.56 50.667L45.3467 50.187C45.16 50.1204 44.84 50.1204 44.6533 50.187L43.44 50.667C42.6933 50.9604 42.12 50.547 42.1733 49.747L42.2533 48.4404C42.2667 48.2404 42.1733 47.947 42.04 47.8004L41.2133 46.787C40.6933 46.1737 40.92 45.4937 41.6933 45.2937L42.96 44.9737C43.16 44.9204 43.4 44.7337 43.5067 44.5604L44.2133 43.467C44.6533 42.787 45.3467 42.787 45.7867 43.467L46.4933 44.5604C46.6 44.7337 46.84 44.9204 47.04 44.9737L48.3067 45.2937C49.08 45.4937 49.3067 46.1737 48.7867 46.787Z" fill="white"/>
</svg>
