<svg width="90" height="90" viewBox="0 0 90 90" fill="none" xmlns="http://www.w3.org/2000/svg">
<rect width="90" height="90" rx="15" fill="#3A3A44"/>
<path d="M46.573 44.8115C46.0396 44.8115 45.5596 44.5182 45.333 44.0382L43.3996 40.1849L42.8396 41.2248C42.533 41.7982 41.9197 42.1582 41.2663 42.1582H40.293C39.7463 42.1582 39.293 41.7049 39.293 41.1582C39.293 40.6115 39.7463 40.1582 40.293 40.1582H41.1463L42.1996 38.2115C42.453 37.7582 42.9596 37.4515 43.4396 37.4782C43.9596 37.4782 44.4263 37.7849 44.6663 38.2382L46.573 42.0515L47.0263 41.1315C47.333 40.5182 47.933 40.1448 48.6263 40.1448H49.7063C50.253 40.1448 50.7063 40.5982 50.7063 41.1448C50.7063 41.6915 50.253 42.1448 49.7063 42.1448H48.7596L47.8129 44.0249C47.5729 44.5182 47.1063 44.8115 46.573 44.8115Z" fill="white"/>
<path opacity="0.4" d="M32.6664 53.8678C32.1198 53.8678 31.6664 53.4144 31.6664 52.8678V45.2677C31.5998 41.6544 32.9464 38.2411 35.4531 35.6811C37.9598 33.1344 41.3198 31.7344 44.9331 31.7344C52.3198 31.7344 58.3331 37.7477 58.3331 45.1344V52.7344C58.3331 53.281 57.8798 53.7344 57.3331 53.7344C56.7864 53.7344 56.3331 53.281 56.3331 52.7344V45.1344C56.3331 38.8544 51.2264 33.7344 44.9331 33.7344C41.8531 33.7344 38.9998 34.9211 36.8798 37.0811C34.7464 39.2544 33.6131 42.1477 33.6664 45.241V52.8544C33.6664 53.4144 33.2264 53.8678 32.6664 53.8678Z" fill="white"/>
<path d="M36.9194 45.6016H36.746C33.946 45.6016 31.666 47.8816 31.666 50.6816V53.1882C31.666 55.9882 33.946 58.2682 36.746 58.2682H36.9194C39.7194 58.2682 41.9993 55.9882 41.9993 53.1882V50.6816C41.9993 47.8816 39.7194 45.6016 36.9194 45.6016Z" fill="white"/>
<path d="M53.2524 45.6016H53.079C50.279 45.6016 47.999 47.8816 47.999 50.6816V53.1882C47.999 55.9882 50.279 58.2682 53.079 58.2682H53.2524C56.0524 58.2682 58.3324 55.9882 58.3324 53.1882V50.6816C58.3324 47.8816 56.0524 45.6016 53.2524 45.6016Z" fill="white"/>
</svg>
